<?xml version="1.0" encoding="utf-8"?>
<!-- Generator: Adobe Illustrator 18.0.0, SVG Export Plug-In . SVG Version: 6.00 Build 0)  -->
<!DOCTYPE svg PUBLIC "-//W3C//DTD SVG 1.1//EN" "http://www.w3.org/Graphics/SVG/1.1/DTD/svg11.dtd">
<svg version="1.1" id="_x31_0" xmlns="http://www.w3.org/2000/svg" xmlns:xlink="http://www.w3.org/1999/xlink" x="0px" y="0px"
	 viewBox="0 0 140 100" enable-background="new 0 0 140 100" xml:space="preserve">
<g id="icon_7_">
	<path fill="#2E2E2E" d="M99.9,64.4H62.5c-4.2,0-7.7-3.4-7.9-7.3L43.3,19.4H34c-2.3,0-4.2-1.9-4.2-4.2S31.7,11,34,11h12.3
		c1.8,0,3.3,1.2,3.9,2.9L62.5,55c0.2,0.4,0.2,0.8,0.2,1.2L99.9,56c0-0.4-0.2-0.6,0-1l6.7-23.6H75c-2.3,0-4.2-1.9-4.2-4.2
		S72.7,23,75,23h37c1.2,0,2.5,0.7,3.3,1.7c0.8,1,1,2.3,0.6,3.5l-8.1,28.4C107.6,61,104.1,64.3,99.9,64.4z"/>
	<circle fill="#2E2E2E" cx="58.6" cy="80.7" r="8.3"/>
	<circle fill="#2E2E2E" cx="103.9" cy="80.7" r="8.3"/>
</g>
</svg>
