<?xml version="1.0" encoding="utf-8"?>
<!-- Generator: Adobe Illustrator 18.0.0, SVG Export Plug-In . SVG Version: 6.00 Build 0)  -->
<!DOCTYPE svg PUBLIC "-//W3C//DTD SVG 1.1//EN" "http://www.w3.org/Graphics/SVG/1.1/DTD/svg11.dtd">
<svg version="1.1" id="Layer_1" xmlns="http://www.w3.org/2000/svg" xmlns:xlink="http://www.w3.org/1999/xlink" x="0px" y="0px"
	 viewBox="0 0 715.9 2406.6" enable-background="new 0 0 715.9 2406.6" xml:space="preserve">
<rect x="0" y="1247.4" fill="#F6F7FC" width="715.9" height="1159.2"/>
<g>
	<g>
		<rect x="225.5" y="0" fill="#A06AFF" width="265" height="102.4"/>
	</g>
</g>
<rect x="222.5" y="23" fill="none" width="270.9" height="73.7"/>
<g>
	<g>
		<text transform="matrix(1 0 0 1 285.0601 45.7502)"><tspan x="0" y="0" fill="#FFFFFF" font-family="'AmoraMedium'" font-size="30" letter-spacing="3">ICON SE</tspan><tspan x="121.9" y="0" fill="#FFFFFF" font-family="'AmoraMedium'" font-size="30">T</tspan></text>
	</g>
	<g>
		<text transform="matrix(1 0 0 1 282.3838 74.5499)"><tspan x="0" y="0" fill="#FFFFFF" font-family="'AmoraMedium'" font-size="24" letter-spacing="2">MOBILE AP</tspan><tspan x="131.6" y="0" fill="#FFFFFF" font-family="'AmoraMedium'" font-size="24">P</tspan></text>
	</g>
</g>
<g>
	<g id="icon_59_">
		<path fill="#A06AFF" d="M273.1,425.6c-1,0-2-0.4-2.8-1.2l-5.9-5.1l-4.7,4.7c-0.6,0.6-1.4,0.7-2.2,0.4c-0.7-0.3-1.2-1-1.2-1.8
			v-11.2l-5.8-6.8c-1-1-1.3-2.4-1-3.8c0.4-1.4,1.4-2.4,2.8-2.8l35.4-11.7c1.5-0.4,3,0,4,1c1,1,1.4,2.5,1,3.9c0,0.1-0.1,0.2-0.1,0.3
			l-15.6,31.3c-0.4,1.3-1.5,2.2-2.8,2.6C273.8,425.6,273.4,425.6,273.1,425.6z M264.3,414.7c0.5,0,0.9,0.2,1.3,0.5l7.4,6.4
			c0-0.1,0.2-0.1,0.3-0.2l15.5-31.1l-35.3,11.7c0,0,0,0.1,0,0.1l6.4,7.4c0.3,0.4,0.5,0.8,0.5,1.3v7.2l2.6-2.6
			C263.3,414.9,263.8,414.7,264.3,414.7z"/>
	</g>
	<path opacity="0.2" fill="#FF6AD4" d="M254.7,424.1c0,0.8,0.5,1.5,1.2,1.8c0.7,0.3,1.6,0.1,2.2-0.4l4.7-4.7l5.9,5.1
		c0.8,0.8,1.8,1.2,2.8,1.2c0.3,0,0.7,0,1-0.1c1.3-0.3,2.3-1.3,2.8-2.6l15.6-31.3c0.1-0.1,0.1-0.2,0.1-0.3c0.4-1.4,0-2.9-1-3.9
		c-1-1-2.5-1.4-4-1l-35.4,11.7c-1.4,0.4-2.4,1.5-2.8,2.8c-0.4,1.4,0,2.8,1,3.8l5.8,6.8V424.1z M251.9,403.4c0,0,0-0.1,0-0.1
		l35.3-11.7l-15.5,31.1c-0.1,0.1-0.2,0.1-0.3,0.2l-7.4-6.4c-0.4-0.3-0.8-0.5-1.3-0.5c-0.5,0-1,0.2-1.4,0.6l-2.6,2.6v-7.2
		c0-0.5-0.2-0.9-0.5-1.3L251.9,403.4z"/>
</g>
<g>
	<g id="icon_54_">
		<path fill="#A06AFF" d="M434.7,425.5c-0.3,0-0.7-0.1-1-0.3c-0.6-0.4-1-1-1-1.7v-5.9h-2c-4.3,0-7.8-3.5-7.8-7.8v-15.7
			c0-4.3,3.5-7.8,7.8-7.8h23.5c4.3,0,7.8,3.5,7.8,7.8v15.7c0,4.3-3.5,7.8-7.8,7.8h-5.4l-13.3,7.6
			C435.4,425.4,435.1,425.5,434.7,425.5z M430.8,390.2c-2.2,0-3.9,1.8-3.9,3.9v15.7c0,2.2,1.8,3.9,3.9,3.9h3.9c1.1,0,2,0.9,2,2v4.5
			l10.8-6.2c0.3-0.2,0.6-0.3,1-0.3h5.9c2.2,0,3.9-1.8,3.9-3.9v-15.7c0-2.2-1.8-3.9-3.9-3.9H430.8z"/>
		<circle fill="#FF6AD4" cx="434.3" cy="402" r="2"/>
		<circle fill="#FF6AD4" cx="442.8" cy="402" r="2"/>
		<circle fill="#FF6AD4" cx="451.3" cy="402" r="2"/>
	</g>
	<path opacity="0.2" fill="#FF6AD4" d="M429.2,419.1h2v5.9c0,0.7,0.4,1.3,1,1.7c0.3,0.2,0.6,0.3,1,0.3c0.3,0,0.7-0.1,1-0.3l13.3-7.6
		h5.4c4.3,0,7.8-3.5,7.8-7.8v-15.7c0-4.3-3.5-7.8-7.8-7.8h-23.5c-4.3,0-7.8,3.5-7.8,7.8v15.7C421.4,415.6,424.9,419.1,429.2,419.1z
		 M425.3,395.6c0-2.2,1.8-3.9,3.9-3.9h23.5c2.2,0,3.9,1.8,3.9,3.9v15.7c0,2.2-1.8,3.9-3.9,3.9h-5.9c-0.3,0-0.7,0.1-1,0.3l-10.8,6.2
		v-4.5c0-1.1-0.9-2-2-2h-3.9c-2.2,0-3.9-1.8-3.9-3.9V395.6z"/>
	<circle opacity="0.2" fill="#FF6AD4" cx="432.7" cy="403.4" r="2"/>
	<circle opacity="0.2" fill="#FF6AD4" cx="441.2" cy="403.4" r="2"/>
	<circle opacity="0.2" fill="#FF6AD4" cx="449.8" cy="403.4" r="2"/>
</g>
<g>
	<g id="icon_80_">
		<path fill="#FF6AD4" d="M613.9,409.4c-5.5,0-9.9-4.4-9.9-9.9c0-5.5,4.4-9.9,9.9-9.9c5.5,0,9.9,4.4,9.9,9.9
			C623.8,404.9,619.4,409.4,613.9,409.4z M613.9,393.5c-3.3,0-5.9,2.7-5.9,5.9c0,3.3,2.7,5.9,5.9,5.9s5.9-2.7,5.9-5.9
			C619.9,396.2,617.2,393.5,613.9,393.5z"/>
	</g>
	<g>
		<path fill="#A06AFF" d="M630.4,424.4L630.4,424.4c-0.9,0-1.8-0.6-1.9-1.6c-0.7-3.6-3.9-6.3-7.7-6.3h-13.1c-3.8,0-7,2.7-7.7,6.3
			c-0.2,0.9-1,1.6-1.9,1.6l0,0c-1.2,0-2.2-1.1-2-2.3c1.1-5.4,5.9-9.5,11.7-9.5h13.1c5.8,0,10.6,4.1,11.7,9.5
			C632.6,423.2,631.6,424.4,630.4,424.4z"/>
	</g>
	<path opacity="0.2" fill="#FF6AD4" d="M622.2,400.9c0-5.5-4.4-9.9-9.9-9.9c-5.5,0-9.9,4.4-9.9,9.9c0,5.5,4.4,9.9,9.9,9.9
		C617.8,410.8,622.2,406.3,622.2,400.9z M606.4,400.9c0-3.3,2.7-5.9,5.9-5.9c3.3,0,5.9,2.7,5.9,5.9c0,3.3-2.7,5.9-5.9,5.9
		C609.1,406.8,606.4,404.2,606.4,400.9z"/>
	<path opacity="0.2" fill="#FF6AD4" d="M594.4,423.4c-0.2,1.2,0.7,2.3,2,2.3c0.9,0,1.8-0.6,1.9-1.6c0.7-3.6,3.9-6.3,7.7-6.3h13.1
		c3.8,0,7,2.7,7.7,6.3c0.2,0.9,1,1.6,1.9,1.6c1.2,0,2.2-1.1,2-2.3c-1.1-5.4-5.9-9.5-11.7-9.5H606C600.3,413.9,595.5,418,594.4,423.4
		z"/>
</g>
<g>
	<g id="icon_75_">
		<path fill="#A06AFF" d="M95.6,414c-6.7,0-12.1-5.4-12.1-12.1c0-6.7,5.4-12.1,12.1-12.1s12.1,5.4,12.1,12.1
			C107.7,408.5,102.2,414,95.6,414z M95.6,393.8c-4.4,0-8,3.6-8,8c0,4.4,3.6,8,8,8s8-3.6,8-8C103.6,397.5,100,393.8,95.6,393.8z"/>
		<path fill="#FF6AD4" d="M113.7,422c-0.5,0-1-0.2-1.4-0.6l-10.1-10.1c-0.8-0.8-0.8-2.1,0-2.8c0.8-0.8,2.1-0.8,2.8,0l10.1,10.1
			c0.8,0.8,0.8,2.1,0,2.8C114.7,421.8,114.2,422,113.7,422z"/>
	</g>
	<path opacity="0.2" fill="#FF6AD4" d="M94,391.2c-6.7,0-12.1,5.4-12.1,12.1c0,6.7,5.4,12.1,12.1,12.1c2.6,0,5-0.8,7-2.2l9.7,9.7
		c0.4,0.4,0.9,0.6,1.4,0.6c0.5,0,1-0.2,1.4-0.6c0.8-0.8,0.8-2.1,0-2.8l-9.7-9.7c1.4-2,2.2-4.4,2.2-7
		C106.1,396.7,100.7,391.2,94,391.2z M94,411.4c-4.4,0-8-3.6-8-8c0-4.4,3.6-8,8-8s8,3.6,8,8C102,407.7,98.4,411.4,94,411.4z"/>
</g>
<g>
	<g id="icon_52_">
		<path fill="#A06AFF" d="M117.9,574.6h-33c-1.1,0-2.1-0.9-2.1-2.1c0-1.1,0.9-2.1,2.1-2.1h33c1.1,0,2.1,0.9,2.1,2.1
			C120,573.6,119,574.6,117.9,574.6z"/>
		<path fill="#A06AFF" d="M117.9,586.9h-33c-1.1,0-2.1-0.9-2.1-2.1c0-1.1,0.9-2.1,2.1-2.1h33c1.1,0,2.1,0.9,2.1,2.1
			C120,586,119,586.9,117.9,586.9z"/>
		<path fill="#FF6AD4" d="M106.9,599.3h-22c-1.1,0-2.1-0.9-2.1-2.1c0-1.1,0.9-2.1,2.1-2.1h22c1.1,0,2.1,0.9,2.1,2.1
			C108.9,598.4,108,599.3,106.9,599.3z"/>
	</g>
	<path opacity="0.2" fill="#FF6AD4" d="M83.3,576h33c1.1,0,2.1-0.9,2.1-2.1c0-1.1-0.9-2.1-2.1-2.1h-33c-1.1,0-2.1,0.9-2.1,2.1
		C81.2,575,82.1,576,83.3,576z"/>
	<path opacity="0.2" fill="#FF6AD4" d="M83.3,588.4h33c1.1,0,2.1-0.9,2.1-2.1c0-1.1-0.9-2.1-2.1-2.1h-33c-1.1,0-2.1,0.9-2.1,2.1
		C81.2,587.4,82.1,588.4,83.3,588.4z"/>
	<path opacity="0.2" fill="#FF6AD4" d="M83.3,600.7h22c1.1,0,2.1-0.9,2.1-2.1c0-1.1-0.9-2.1-2.1-2.1h-22c-1.1,0-2.1,0.9-2.1,2.1
		C81.2,599.8,82.1,600.7,83.3,600.7z"/>
</g>
<g>
	<g>
		<path fill="#A06AFF" d="M458.8,595.9l-24.1-24.1c-0.8-0.8-2.1-0.8-2.8,0c-0.8,0.8-0.8,2.1,0,2.8l24.1,24.1
			c0.4,0.4,0.9,0.6,1.4,0.6c0.5,0,1-0.2,1.4-0.6C459.6,598,459.6,596.7,458.8,595.9z"/>
		<path fill="#FF6AD4" d="M434.8,598.7l24.1-24.1c0.8-0.8,0.8-2.1,0-2.8c-0.8-0.8-2.1-0.8-2.8,0l-24.1,24.1
			c-0.4,0.4-0.6,0.9-0.6,1.4c0,0.5,0.2,1,0.6,1.4C432.7,599.5,434,599.5,434.8,598.7z"/>
	</g>
	<path opacity="0.2" fill="#FF6AD4" d="M429.8,598.7c0,0.5,0.2,1,0.6,1.4c0.8,0.8,2.1,0.8,2.8,0l10.6-10.6l10.6,10.6
		c0.4,0.4,0.9,0.6,1.4,0.6c0.5,0,1-0.2,1.4-0.6c0.8-0.8,0.8-2.1,0-2.8l-10.6-10.6l10.6-10.6c0.8-0.8,0.8-2.1,0-2.8
		c-0.8-0.8-2.1-0.8-2.8,0l-10.6,10.6l-10.6-10.6c-0.8-0.8-2.1-0.8-2.8,0c-0.8,0.8-0.8,2.1,0,2.8l10.6,10.6l-10.6,10.6
		C430,597.7,429.8,598.2,429.8,598.7z"/>
</g>
<g>
	<g id="icon_65_">
		<path fill="#A06AFF" d="M278.7,599.3c-0.5,0-1-0.2-1.4-0.6c-0.8-0.8-0.8-2,0-2.8l12.5-12.5l-12.5-12.5c-0.8-0.8-0.8-2,0-2.8
			c0.8-0.8,2-0.8,2.8,0L294,582c0.8,0.8,0.8,2,0,2.8l-13.9,13.9C279.7,599.1,279.2,599.3,278.7,599.3z"/>
		<path fill="#FF6AD4" d="M292.6,585.4h-35.9c-1.1,0-2-0.9-2-2s0.9-2,2-2h35.9c1.1,0,2,0.9,2,2S293.7,585.4,292.6,585.4z"/>
	</g>
	<path opacity="0.2" fill="#FF6AD4" d="M292.9,584c0-0.1-0.1-0.1-0.1-0.2c0-0.1-0.1-0.1-0.1-0.2c0-0.1-0.1-0.1-0.2-0.2
		c0,0-0.1-0.1-0.1-0.1l-13.9-13.9c-0.8-0.8-2-0.8-2.8,0c-0.8,0.8-0.8,2,0,2.8l10.5,10.5h-31.1c-1.1,0-2,0.9-2,2s0.9,2,2,2h31.1
		l-10.5,10.5c-0.8,0.8-0.8,2,0,2.8c0.4,0.4,0.9,0.6,1.4,0.6c0.5,0,1-0.2,1.4-0.6l13.9-13.9c0,0,0.1-0.1,0.1-0.1
		c0-0.1,0.1-0.1,0.1-0.2c0-0.1,0.1-0.1,0.1-0.2c0,0,0.1-0.1,0.1-0.1c0-0.1,0.1-0.2,0.1-0.2c0,0,0-0.1,0-0.1c0-0.1,0-0.3,0-0.4
		c0,0,0,0,0,0l0,0c0-0.1,0-0.3,0-0.4c0-0.1,0-0.1-0.1-0.2C292.9,584.2,292.9,584.1,292.9,584z"/>
</g>
<g>
	<g>
		<path fill="#FF6AD4" d="M613.5,598.6L602,584.9c-0.7-0.8-0.6-2.1,0.3-2.8c0.8-0.7,2.1-0.6,2.8,0.3l11.5,13.8
			c0.4,0.4,0.5,1,0.5,1.5c0,0.5-0.3,1-0.7,1.4C615.5,599.6,614.3,599.5,613.5,598.6z"/>
		<path fill="#A06AFF" d="M616.9,598.4l15.9-23.5c0.6-0.9,0.4-2.2-0.5-2.8c-0.9-0.6-2.2-0.4-2.8,0.5l-15.9,23.5
			c-0.3,0.5-0.4,1-0.3,1.5c0.1,0.5,0.4,1,0.8,1.3C615,599.5,616.3,599.3,616.9,598.4z"/>
	</g>
	<path opacity="0.2" fill="#FF6AD4" d="M612,600c0.6,0.7,1.5,0.9,2.3,0.6c0.4-0.1,0.8-0.4,1.1-0.8l15.9-23.5
		c0.6-0.9,0.4-2.2-0.5-2.8c-0.9-0.6-2.2-0.4-2.8,0.5l-14.5,21.4l-9.9-11.8c-0.7-0.8-2-1-2.8-0.3c-0.8,0.7-1,2-0.3,2.8L612,600z"/>
</g>
<g>
	<g id="icon_56_">
		<path fill="#FF6AD4" d="M614.4,234.1c-3.1,0-5.6-2.5-5.6-5.6c0-3.1,2.5-5.6,5.6-5.6c3.1,0,5.6,2.5,5.6,5.6
			C620,231.6,617.5,234.1,614.4,234.1z M614.4,226.6c-1,0-1.9,0.8-1.9,1.9c0,1,0.8,1.9,1.9,1.9s1.9-0.8,1.9-1.9
			C616.3,227.5,615.4,226.6,614.4,226.6z"/>
		<path fill="#A06AFF" d="M614.4,247.2c-2.1,0-3.7-1.7-3.7-3.7l0-0.3c0-0.1,0.1-1.1-0.9-1.7c-0.4-0.2-0.8-0.4-1.2-0.5
			c-1.2-0.3-1.9,0.6-1.9,0.6l-0.2,0.2c-1.4,1.4-3.9,1.4-5.3,0c-1.5-1.5-1.5-3.8,0-5.3l0.2-0.2c0.1-0.1,0.8-0.7,0.6-1.9
			c-0.1-0.4-0.3-0.8-0.5-1.2c-0.6-1-1.6-0.9-1.8-0.9l-0.3,0c-2.1,0-3.7-1.7-3.7-3.7c0-2.1,1.7-3.7,3.7-3.7l0.3,0
			c0.2,0,1.1,0.1,1.7-0.9c0.2-0.4,0.4-0.8,0.5-1.2c0.3-1.2-0.5-1.8-0.6-1.9l-0.2-0.2c-1.5-1.5-1.5-3.8,0-5.3c1.4-1.4,3.9-1.4,5.3,0
			l0.2,0.2c0.1,0.1,0.7,0.8,1.9,0.6c0.4-0.1,0.8-0.3,1.2-0.5c1-0.6,0.9-1.6,0.9-1.8l0-0.3c0-2.1,1.7-3.7,3.7-3.7s3.7,1.7,3.7,3.7
			l0,0.3c0,0.1-0.1,1.1,0.9,1.7c0.4,0.2,0.8,0.4,1.2,0.5c1.2,0.3,1.9-0.6,1.9-0.6l0.2-0.2c1.4-1.4,3.9-1.4,5.3,0
			c1.5,1.5,1.5,3.8,0,5.3l-0.2,0.2c-0.1,0.1-0.8,0.7-0.6,1.9c0.1,0.4,0.3,0.8,0.5,1.2c0.6,1,1.6,0.9,1.8,0.9l0.3,0
			c2.1,0,3.7,1.7,3.7,3.7c0,2.1-1.7,3.7-3.7,3.7l-0.3,0c-0.1,0-1.1-0.1-1.7,0.9c-0.2,0.4-0.4,0.8-0.5,1.2c-0.3,1.2,0.5,1.8,0.6,1.9
			l0.2,0.2c1.5,1.5,1.5,3.8,0,5.3c-1.4,1.4-3.9,1.4-5.3,0l-0.2-0.2c-0.1-0.1-0.7-0.9-1.9-0.6c-0.4,0.1-0.8,0.3-1.2,0.5
			c-1,0.6-0.9,1.6-0.9,1.8l0,0.3C618.1,245.5,616.5,247.2,614.4,247.2z M608,237.1c0.4,0,0.9,0,1.4,0.2c0.8,0.2,1.6,0.5,2.3,1
			c1.8,1.2,2.5,2.9,2.7,4.2c0.1-1.3,0.8-3.1,2.7-4.2c0.7-0.5,1.5-0.8,2.3-1c2.1-0.5,3.8,0.2,4.9,1.1c-0.9-1.1-1.6-2.7-1.1-4.9
			c0.2-0.8,0.5-1.6,1-2.3c1.2-1.8,2.9-2.5,4.2-2.7c-1.3-0.1-3.1-0.8-4.2-2.7c-0.5-0.7-0.8-1.5-1-2.3c-0.5-2.1,0.2-3.8,1.1-4.9
			c-1.1,0.9-2.7,1.6-4.9,1.1c-0.8-0.2-1.6-0.5-2.3-1c-1.8-1.2-2.5-2.9-2.7-4.2c-0.1,1.3-0.8,3.1-2.7,4.2c-0.7,0.5-1.5,0.8-2.3,1
			c-2.1,0.5-3.8-0.2-4.9-1.1c0.9,1.1,1.6,2.7,1.1,4.9c-0.2,0.8-0.5,1.6-1,2.3c-1.2,1.8-2.9,2.5-4.2,2.7c1.3,0.1,3.1,0.8,4.2,2.7
			c0.5,0.7,0.8,1.5,1,2.3c0.5,2.1-0.2,3.8-1.1,4.9C605.3,237.7,606.5,237.1,608,237.1z"/>
	</g>
	<path opacity="0.2" fill="#FF6AD4" d="M612.8,235.5c3.1,0,5.6-2.5,5.6-5.6c0-3.1-2.5-5.6-5.6-5.6c-3.1,0-5.6,2.5-5.6,5.6
		C607.2,233,609.7,235.5,612.8,235.5z M612.8,228c1,0,1.9,0.8,1.9,1.9c0,1-0.8,1.9-1.9,1.9s-1.9-0.8-1.9-1.9
		C610.9,228.9,611.8,228,612.8,228z"/>
	<path opacity="0.2" fill="#FF6AD4" d="M597.8,233.7l0.3,0c0.2,0,1.2-0.1,1.8,0.9c0.2,0.4,0.4,0.8,0.5,1.2c0.3,1.2-0.5,1.8-0.6,1.9
		l-0.2,0.2c-1.5,1.5-1.5,3.8,0,5.3c1.4,1.4,3.9,1.4,5.3,0l0.2-0.2c0,0,0.7-0.9,1.9-0.6c0.4,0.1,0.8,0.3,1.2,0.5
		c1,0.6,0.9,1.6,0.9,1.7l0,0.3c0,2.1,1.7,3.7,3.7,3.7s3.7-1.7,3.7-3.7l0-0.3c0-0.2-0.1-1.2,0.9-1.8c0.4-0.2,0.8-0.4,1.2-0.5
		c1.2-0.3,1.8,0.5,1.9,0.6l0.2,0.2c1.4,1.4,3.9,1.4,5.3,0c1.5-1.5,1.5-3.8,0-5.3l-0.2-0.2c-0.1-0.1-0.9-0.8-0.6-1.9
		c0.1-0.4,0.3-0.8,0.5-1.2c0.6-1,1.6-0.9,1.7-0.9l0.3,0c2.1,0,3.7-1.7,3.7-3.7c0-2.1-1.7-3.7-3.7-3.7l-0.3,0c-0.2,0-1.2,0.1-1.8-0.9
		c-0.2-0.4-0.4-0.8-0.5-1.2c-0.3-1.2,0.5-1.8,0.6-1.9l0.2-0.2c1.5-1.5,1.5-3.8,0-5.3c-1.4-1.4-3.9-1.4-5.3,0l-0.2,0.2
		c0,0-0.7,0.9-1.9,0.6c-0.4-0.1-0.8-0.3-1.2-0.5c-1-0.6-0.9-1.6-0.9-1.7l0-0.3c0-2.1-1.7-3.7-3.7-3.7s-3.7,1.7-3.7,3.7l0,0.3
		c0,0.2,0.1,1.2-0.9,1.8c-0.4,0.2-0.8,0.4-1.2,0.5c-1.2,0.3-1.8-0.5-1.9-0.6l-0.2-0.2c-1.4-1.4-3.9-1.4-5.3,0
		c-1.5,1.5-1.5,3.8,0,5.3l0.2,0.2c0.1,0.1,0.9,0.8,0.6,1.9c-0.1,0.4-0.3,0.8-0.5,1.2c-0.6,1-1.6,0.9-1.7,0.9l-0.3,0
		c-2.1,0-3.7,1.7-3.7,3.7C594.1,232,595.8,233.7,597.8,233.7z M603.1,227.3c0.5-0.7,0.8-1.5,1-2.3c0.5-2.1-0.2-3.8-1.1-4.9
		c1.1,0.9,2.7,1.6,4.9,1.1c0.8-0.2,1.6-0.5,2.3-1c1.8-1.2,2.5-2.9,2.7-4.2c0.1,1.3,0.8,3.1,2.7,4.2c0.7,0.5,1.5,0.8,2.3,1
		c2.1,0.5,3.8-0.2,4.9-1.1c-0.9,1.1-1.6,2.7-1.1,4.9c0.2,0.8,0.5,1.6,1,2.3c1.2,1.8,2.9,2.5,4.2,2.7c-1.3,0.1-3.1,0.8-4.2,2.7
		c-0.5,0.7-0.8,1.5-1,2.3c-0.5,2.1,0.2,3.8,1.1,4.9c-1.1-0.9-2.7-1.6-4.9-1.1c-0.8,0.2-1.6,0.5-2.3,1c-1.8,1.2-2.5,2.9-2.7,4.2
		c-0.1-1.3-0.8-3.1-2.7-4.2c-0.7-0.5-1.5-0.8-2.3-1c-0.5-0.1-0.9-0.2-1.4-0.2c-1.5,0-2.7,0.6-3.5,1.3c0.9-1.1,1.6-2.7,1.1-4.9
		c-0.2-0.8-0.5-1.6-1-2.3c-1.2-1.8-2.9-2.5-4.2-2.7C600.2,229.8,601.9,229.1,603.1,227.3z"/>
</g>
<g>
	<path fill="#FF6AD4" d="M271.3,242.9c-0.4,0-0.9-0.1-1.2-0.4c-0.4-0.3-8.8-6.6-12-10.8c-2.7-3.5-3.8-7.5-3-10.8
		c0.6-2.6,2.3-4.6,5-5.8c3.8-1.8,8.3-1,11.3,1.8c3-2.8,7.4-3.6,11.3-1.8c2.6,1.2,4.3,3.2,5,5.8c0.8,3.3-0.3,7.3-3,10.8
		c-3.2,4.1-11.6,10.5-12,10.8C272.2,242.7,271.8,242.9,271.3,242.9z M264.3,218.2c-0.8,0-1.7,0.2-2.6,0.6c-1.5,0.7-2.4,1.7-2.7,3
		c-0.5,2.1,0.4,4.9,2.3,7.3c2.2,2.8,7.5,7.1,10,9c2.4-1.9,7.8-6.2,10-9c1.9-2.5,2.8-5.3,2.3-7.3c-0.3-1.3-1.2-2.4-2.7-3l0,0
		c-3.2-1.5-6.4,0.1-7.8,2.3c-0.8,1.2-2.8,1.2-3.5,0C268.6,219.5,266.6,218.2,264.3,218.2z"/>
	<path opacity="0.2" fill="#FF6AD4" d="M268.5,243.9c0.4,0.3,0.8,0.4,1.2,0.4c0.4,0,0.9-0.1,1.2-0.4c0.4-0.3,8.8-6.6,12-10.8
		c2.7-3.5,3.8-7.5,3-10.8c-0.6-2.6-2.3-4.6-5-5.8c-3.8-1.8-8.3-1-11.3,1.8c-3-2.8-7.4-3.6-11.3-1.8c-2.6,1.2-4.3,3.2-5,5.8
		c-0.8,3.3,0.3,7.3,3,10.8C259.7,237.3,268.2,243.6,268.5,243.9z M257.5,223.3c0.3-1.3,1.2-2.4,2.7-3c0.9-0.4,1.7-0.6,2.6-0.6
		c2.2,0,4.2,1.3,5.2,2.9c0.8,1.2,2.8,1.2,3.5,0c1.4-2.3,4.6-3.8,7.8-2.3c1.5,0.7,2.4,1.7,2.7,3c0.5,2.1-0.4,4.9-2.3,7.3
		c-2.2,2.8-7.5,7.1-10,9c-2.4-1.9-7.8-6.2-10-9C257.9,228.1,257,225.3,257.5,223.3z"/>
</g>
<g>
	<path fill="#A06AFF" d="M433.2,247.3c-0.8,0-1.6-0.2-2.2-0.7c-1.3-1-1.9-2.7-1.4-4.2l2.9-8.9l-7.5-5.6c-1.3-1-1.9-2.6-1.3-4.2
		c0.5-1.6,1.9-2.6,3.6-2.6h9.2l2.8-8.7c0.5-1.6,2-2.6,3.6-2.6c1.6,0,3.1,1.1,3.6,2.6l2.8,8.7h9.2c1.7,0,3.1,1,3.6,2.6
		c0.5,1.6,0,3.2-1.3,4.2l-7.5,5.6l2.9,8.8c0.5,1.6,0,3.2-1.4,4.2c-1.3,1-3.1,1-4.4,0l-7.4-5.4l-7.4,5.4
		C434.8,247,434,247.3,433.2,247.3z M428.4,225.2l6.8,5c1.3,1,1.8,2.7,1.3,4.2l-2.6,8l6.7-4.9c1.3-1,3.1-1,4.4,0l6.7,4.8l-2.6-8
		c-0.5-1.5,0-3.2,1.3-4.2l6.8-5H449c-1.6,0-3.1-1.1-3.6-2.6l-2.5-7.8l-2.5,7.8c-0.5,1.6-2,2.6-3.6,2.6H428.4z M458.5,225.2
		L458.5,225.2L458.5,225.2z"/>
	<path opacity="0.2" fill="#FF6AD4" d="M423.4,229.3l7.5,5.6l-2.9,8.9c-0.5,1.6,0.1,3.3,1.4,4.2c0.7,0.5,1.4,0.7,2.2,0.7
		c0.8,0,1.6-0.2,2.2-0.7l7.4-5.4l7.4,5.4c1.4,1,3.1,1,4.4,0c1.3-1,1.9-2.6,1.4-4.2l-2.9-8.8l7.5-5.6c1.3-1,1.9-2.6,1.3-4.2
		c-0.5-1.6-1.9-2.6-3.6-2.6h-9.2l-2.8-8.7c-0.5-1.6-2-2.6-3.6-2.6c-1.6,0-3.1,1.1-3.6,2.6l-2.8,8.7h-9.2c-1.7,0-3.1,1-3.6,2.6
		C421.5,226.6,422.1,228.3,423.4,229.3z M435.1,226.6c1.6,0,3.1-1.1,3.6-2.6l2.5-7.8l2.5,7.8c0.5,1.6,2,2.6,3.6,2.6h8.3l-6.8,5
		c-1.3,1-1.8,2.7-1.3,4.2l2.6,8l-6.7-4.8c-1.3-1-3.1-1-4.4,0l-6.7,4.9l2.6-8c0.5-1.5,0-3.2-1.3-4.2l-6.8-5H435.1z"/>
</g>
<g>
	<g>
		<path fill="#A06AFF" d="M114.8,234.9h-2.2v-12.6c0-7.1-5.8-12.8-12.8-12.8c-7.1,0-12.8,5.8-12.8,12.8v12.6h-2.2c-1.1,0-2,0.9-2,2
			c0,1.1,0.9,2,2,2H87h4.2h0.3h4h8.5h4h0.8h3.8h2.2c1.1,0,2-0.9,2-2C116.8,235.8,115.9,234.9,114.8,234.9z M108.6,234.9h-1.7h-6.6
			h-0.9h-6.6H91v-12.6c0-4.9,4-8.8,8.8-8.8c4.9,0,8.8,4,8.8,8.8V234.9z"/>
		<path fill="#FF6AD4" d="M104.1,239.1c0,2.4-1.9,4.3-4.3,4.3c-2.4,0-4.3-1.9-4.3-4.3c0-0.1,0-0.2,0-0.3h-4c0,0.1,0,0.2,0,0.3
			c0,4.6,3.7,8.3,8.3,8.3c4.6,0,8.3-3.7,8.3-8.3c0-0.1,0-0.2,0-0.3h-4C104.1,238.9,104.1,239,104.1,239.1z"/>
	</g>
	<path opacity="0.2" fill="#FF6AD4" d="M83.2,240.4h2.2h4.2h0.3c0,0,0,0.1,0,0.1c0,4.6,3.7,8.3,8.3,8.3c4.6,0,8.3-3.7,8.3-8.3
		c0,0,0-0.1,0-0.1h0.8h3.8h2.2c1.1,0,2-0.9,2-2c0-1.1-0.9-2-2-2h-2.2v-12.6c0-7.1-5.8-12.8-12.8-12.8c-7.1,0-12.8,5.8-12.8,12.8
		v12.6h-2.2c-1.1,0-2,0.9-2,2C81.2,239.5,82.1,240.4,83.2,240.4z M98.2,244.8c-2.4,0-4.3-1.9-4.3-4.3c0,0,0-0.1,0-0.1h0h8.5h0
		c0,0,0,0.1,0,0.1C102.5,242.9,100.6,244.8,98.2,244.8z M89.4,223.8c0-4.9,4-8.8,8.8-8.8c4.9,0,8.8,4,8.8,8.8v12.6h-1.7h-6.6h-0.9
		h-6.6h-1.7V223.8z"/>
</g>
<g>
	<g id="icon_4_">
		<path fill="#A06AFF" d="M611.7,956.8c-1.1,0-1.9-0.9-1.9-1.9v-33.1c0-1.1,0.9-1.9,1.9-1.9c1.1,0,1.9,0.9,1.9,1.9v33.1
			C613.7,956,612.8,956.8,611.7,956.8z"/>
		<path fill="#FF6AD4" d="M617.5,943.2c-1.1,0-1.9-0.9-1.9-1.9c0-1.1,0.9-1.9,1.9-1.9h11.5c0.1,0,0.1-0.1,0.1-0.3
			c0-0.2-0.1-0.2-0.1-0.2c-0.2-0.1-0.4-0.3-0.5-0.5l-2.8-3.7c-0.5-0.7-0.5-1.7,0-2.4l2.8-3.7c0.1-0.2,0.3-0.3,0.5-0.5
			c0,0,0.1-0.1,0.1-0.2c0-0.1,0-0.2-0.1-0.3l-11.6,0c-1.1,0-1.9-0.9-1.9-1.9c0-1.1,0.9-1.9,1.9-1.9h11.5c1.9,0,3.4,1.2,3.9,3
			c0.5,1.7-0.1,3.4-1.5,4.5l-1.8,2.3l1.7,2.3c1.4,1,1.9,2.8,1.5,4.5c-0.5,1.8-2,2.9-3.8,3H617.5z"/>
	</g>
	<path opacity="0.2" fill="#FF6AD4" d="M608.2,923.2v33.1c0,1.1,0.9,1.9,1.9,1.9c1.1,0,1.9-0.9,1.9-1.9v-33.1c0-1.1-0.9-1.9-1.9-1.9
		C609.1,921.3,608.2,922.2,608.2,923.2z"/>
	<path opacity="0.2" fill="#FF6AD4" d="M631.4,928.2c-0.5-1.8-2-2.9-3.9-3H616c-1.1,0-1.9,0.9-1.9,1.9c0,1.1,0.9,1.9,1.9,1.9l11.6,0
		c0,0,0.1,0.1,0.1,0.3c0,0.2-0.1,0.2-0.1,0.2c-0.2,0.1-0.4,0.3-0.5,0.5l-2.8,3.7c-0.5,0.7-0.5,1.7,0,2.4l2.8,3.7
		c0.1,0.2,0.3,0.3,0.5,0.5c0,0,0.1,0.1,0.1,0.2c0,0.1,0,0.2-0.1,0.3H616c-1.1,0-1.9,0.9-1.9,1.9c0,1.1,0.9,1.9,1.9,1.9h11.6
		c1.8,0,3.3-1.2,3.8-3c0.5-1.7-0.1-3.5-1.5-4.5l-1.7-2.3l1.8-2.3C631.2,931.6,631.8,929.8,631.4,928.2z"/>
</g>
<g>
	<g id="icon_3_">
		<path fill="#A06AFF" d="M101.8,957.9c-2,0-4-0.7-5.6-2.3l-11.1-11c-3.1-3-3.1-8-0.1-11.1l13.8-14c0.4-0.4,0.9-0.6,1.4-0.6
			l17.5-0.1c2.1,0,3.8,1.7,3.9,3.8l0.1,17.5c0,0.5-0.2,1-0.6,1.4l-13.8,14C105.9,957.1,103.8,957.8,101.8,957.9z M101.1,922.9
			l-13.2,13.4c-1.5,1.5-1.5,4,0,5.5l11.1,11c1.5,1.5,4,1.5,5.5,0l13.2-13.4l-0.1-16.7L101.1,922.9z"/>
		<circle fill="#FF6AD4" cx="110.5" cy="930.5" r="2.9"/>
	</g>
	<path opacity="0.2" fill="#FF6AD4" d="M116.2,920.3l-17.5,0.1c-0.5,0-1,0.2-1.4,0.6l-13.8,14c-3,3.1-3,8,0.1,11.1l11.1,11
		c1.5,1.5,3.6,2.3,5.6,2.3c2,0,4-0.8,5.5-2.3l13.8-14c0.4-0.4,0.6-0.9,0.6-1.4l-0.1-17.5C120,922,118.3,920.2,116.2,920.3z
		 M103,954.2c-1.5,1.5-4,1.6-5.5,0l-11.1-11c-1.5-1.5-1.6-4,0-5.5l13.2-13.4l16.6-0.2l0.1,16.7L103,954.2z"/>
	<circle opacity="0.2" fill="#FF6AD4" cx="108.9" cy="931.9" r="2.9"/>
</g>
<g>
	<g id="icon_2_">
		<path fill="#FF6AD4" d="M288.1,946.3h-4c-1.1,0-2-0.9-2-2s0.9-2,2-2h4c1.1,0,2,0.9,2,2S289.2,946.3,288.1,946.3z"/>
		<path fill="#FF6AD4" d="M292.3,936.4h-34c-1.1,0-2-0.9-2-2s0.9-2,2-2h34c1.1,0,2,0.9,2,2S293.4,936.4,292.3,936.4z"/>
		<path fill="#A06AFF" d="M288.3,954.3h-26c-4.4,0-8-3.6-8-8v-16c0-4.4,3.6-8,8-8h26c4.4,0,8,3.6,8,8v16
			C296.3,950.7,292.7,954.3,288.3,954.3z M262.3,926.4c-2.2,0-4,1.8-4,4v16c0,2.2,1.8,4,4,4h26c2.2,0,4-1.8,4-4v-16c0-2.2-1.8-4-4-4
			H262.3z"/>
	</g>
	<path opacity="0.2" fill="#FF6AD4" d="M282.5,947.8h4c1.1,0,2-0.9,2-2c0-1.1-0.9-2-2-2h-4c-1.1,0-2,0.9-2,2
		C280.5,946.9,281.4,947.8,282.5,947.8z"/>
	<path opacity="0.2" fill="#FF6AD4" d="M286.7,923.8h-26c-4.4,0-8,3.6-8,8v16c0,4.4,3.6,8,8,8h26c4.4,0,8-3.6,8-8v-16
		C294.7,927.4,291.1,923.8,286.7,923.8z M256.8,931.8c0-2.2,1.8-4,4-4h26c2.2,0,4,1.8,4,4v2h-34V931.8z M290.7,947.8
		c0,2.2-1.8,4-4,4h-26c-2.2,0-4-1.8-4-4v-10h34V947.8z"/>
</g>
<g>
	<g id="icon_33_">
		<path fill="#A06AFF" d="M457.5,942.5c-0.5,0-1-0.2-1.4-0.6c-0.8-0.8-0.8-2,0-2.8l5.6-5.6c2.3-2.3,2.3-6.1,0-8.5
			c-2.3-2.3-6.1-2.3-8.5,0l-5.6,5.6c-0.8,0.8-2,0.8-2.8,0c-0.8-0.8-0.8-2,0-2.8l5.6-5.6c3.9-3.9,10.2-3.9,14.1,0
			c3.9,3.9,3.9,10.2,0,14.1l-5.6,5.6C458.6,942.3,458,942.5,457.5,942.5z"/>
		<path fill="#A06AFF" d="M439.2,957.5c-2.6,0-5.1-1-7-2.9c-3.9-3.9-3.9-10.2,0-14.1l5.6-5.6c0.8-0.8,2-0.8,2.8,0
			c0.8,0.8,0.8,2,0,2.8l-5.6,5.6c-2.3,2.3-2.3,6.1,0,8.5c2.3,2.3,6.1,2.3,8.5,0l5.6-5.6c0.8-0.8,2-0.8,2.8,0c0.8,0.8,0.8,2,0,2.8
			l-5.6,5.6C444.3,956.5,441.8,957.5,439.2,957.5z"/>
		<path fill="#FF6AD4" d="M444.9,943.9c-0.5,0-1-0.2-1.4-0.6c-0.8-0.8-0.8-2,0-2.8l7-7c0.8-0.8,2-0.8,2.8,0c0.8,0.8,0.8,2,0,2.8
			l-7,7C445.9,943.7,445.4,943.9,444.9,943.9z"/>
	</g>
	<path opacity="0.2" fill="#FF6AD4" d="M448.9,923.6l-5.6,5.6c-0.8,0.8-0.8,2,0,2.8c0.8,0.8,2,0.8,2.8,0l5.6-5.6
		c2.3-2.3,6.1-2.3,8.5,0c2.3,2.3,2.3,6.1,0,8.5l-5.6,5.6c-0.8,0.8-0.8,2,0,2.8c0.4,0.4,0.9,0.6,1.4,0.6c0.5,0,1-0.2,1.4-0.6l5.6-5.6
		c3.9-3.9,3.9-10.2,0-14.1C459.1,919.7,452.8,919.7,448.9,923.6z"/>
	<path opacity="0.2" fill="#FF6AD4" d="M439,939.1c0.8-0.8,0.8-2,0-2.8c-0.8-0.8-2-0.8-2.8,0l-5.6,5.6c-3.9,3.9-3.9,10.2,0,14.1
		c1.9,1.9,4.5,2.9,7,2.9c2.6,0,5.1-1,7-2.9l5.6-5.6c0.8-0.8,0.8-2,0-2.8c-0.8-0.8-2-0.8-2.8,0l-5.6,5.6c-2.3,2.3-6.1,2.3-8.5,0
		c-2.3-2.3-2.3-6.1,0-8.5L439,939.1z"/>
	<path opacity="0.2" fill="#FF6AD4" d="M451.7,934.8c-0.8-0.8-2-0.8-2.8,0l-7,7c-0.8,0.8-0.8,2,0,2.8c0.4,0.4,0.9,0.6,1.4,0.6
		c0.5,0,1-0.2,1.4-0.6l7-7C452.5,936.9,452.5,935.6,451.7,934.8z"/>
</g>
<g>
	<g id="icon_51_">
		<path fill="#FF6AD4" d="M99.3,776.1v-9.3c0-1.7,1.4-3.1,3.1-3.1h2c1.7,0,3.1,1.4,3.1,3.1v9.3H99.3z"/>
	</g>
	<path fill="#A06AFF" d="M115.8,776.1H90.9c-2.2,0-4-1.8-4-4v-16.7l-2.2-0.1c-0.9-0.1-1.7-0.7-1.9-1.6c-0.2-0.9,0.2-1.8,1-2.2
		l17.6-9.8c1.2-0.7,2.7-0.7,3.9,0l17.6,9.8c0.8,0.4,1.2,1.4,1,2.2c-0.2,0.9-1,1.5-1.9,1.6l-2.2,0.1v16.7
		C119.9,774.3,118.1,776.1,115.8,776.1z M90.7,752.3c0.2,0.3,0.4,0.7,0.4,1.2v18.6l24.8-0.1l-0.1-18.5c0-0.4,0.1-0.8,0.4-1.2
		l-12.8-7.1L90.7,752.3z"/>
	<path opacity="0.2" fill="#FF6AD4" d="M99.9,743l-17.6,9.8c-0.8,0.4-1.2,1.4-1,2.2c0.2,0.9,1,1.5,1.9,1.6l2.2,0.1v16.7
		c0,2.2,1.8,4,4,4h8.3h8.2h8.3c2.2,0,4-1.8,4-4v-16.7l2.2-0.1c0.9-0.1,1.7-0.7,1.9-1.6c0.2-0.9-0.2-1.8-1-2.2l-17.6-9.8
		C102.5,742.4,101.1,742.3,99.9,743z M114.2,773.4l-8.3,0v-5.2c0-1.7-1.4-3.1-3.1-3.1h-2c-1.7,0-3.1,1.4-3.1,3.1v5.2l-8.2,0v-18.6
		c0-0.4-0.1-0.8-0.4-1.2l12.7-7.1l12.8,7.1c-0.2,0.3-0.4,0.7-0.4,1.2L114.2,773.4z"/>
</g>
<g>
	<g id="icon_17_">
		<path fill="#A06AFF" d="M282.7,777.6h-8.1c-1.1,0-2-0.9-2-2s0.9-2,2-2h8.1c2.2,0,4.1-1.8,4.1-4.1v-20.3c0-2.2-1.8-4.1-4.1-4.1
			h-8.1c-1.1,0-2-0.9-2-2c0-1.1,0.9-2,2-2h8.1c4.5,0,8.1,3.6,8.1,8.1v20.3C290.8,773.9,287.2,777.6,282.7,777.6z"/>
		<path fill="#FF6AD4" d="M274.6,767.4c-0.5,0-1-0.2-1.4-0.6c-0.8-0.8-0.8-2.1,0-2.9l4.6-4.6l-4.6-4.6c-0.8-0.8-0.8-2.1,0-2.9
			c0.8-0.8,2.1-0.8,2.9,0l6.1,6.1c0.8,0.8,0.8,2.1,0,2.9l-6.1,6.1C275.6,767.2,275.1,767.4,274.6,767.4z"/>
		<path fill="#FF6AD4" d="M276.6,761.3h-18.2c-1.1,0-2-0.9-2-2c0-1.1,0.9-2,2-2h18.2c1.1,0,2,0.9,2,2
			C278.7,760.4,277.7,761.3,276.6,761.3z"/>
	</g>
	<path opacity="0.2" fill="#FF6AD4" d="M273,779h8.1c4.5,0,8.1-3.6,8.1-8.1v-20.3c0-4.5-3.6-8.1-8.1-8.1H273c-1.1,0-2,0.9-2,2
		s0.9,2,2,2h8.1c2.2,0,4.1,1.8,4.1,4.1v20.3c0,2.2-1.8,4.1-4.1,4.1H273c-1.1,0-2,0.9-2,2C271,778.1,271.9,779,273,779z"/>
	<path opacity="0.2" fill="#FF6AD4" d="M271.6,768.3c0.4,0.4,0.9,0.6,1.4,0.6c0.5,0,1-0.2,1.4-0.6l6.1-6.1c0.8-0.8,0.8-2.1,0-2.9
		l-6.1-6.1c-0.8-0.8-2.1-0.8-2.9,0c-0.8,0.8-0.8,2.1,0,2.9l2.6,2.6h-17.4c-1.1,0-2,0.9-2,2c0,1.1,0.9,2,2,2h17.4l-2.6,2.6
		C270.8,766.2,270.8,767.5,271.6,768.3z"/>
</g>
<g>
	<g>
		<path fill="#A06AFF" d="M443.8,741.1c-10.9,0-19.8,8.9-19.8,19.8c0,10.9,8.9,19.8,19.8,19.8c10.9,0,19.8-8.9,19.8-19.8
			C463.6,750,454.7,741.1,443.8,741.1z M443.8,776.7c-8.7,0-15.8-7.1-15.8-15.8c0-8.7,7.1-15.8,15.8-15.8c8.7,0,15.8,7.1,15.8,15.8
			C459.6,769.6,452.5,776.7,443.8,776.7z"/>
		<path fill="#FF6AD4" d="M449.7,758.9h-4V753c0-1.1-0.9-2-2-2c-1.1,0-2,0.9-2,2v7.9c0,1.1,0.9,2,2,2h5.9c1.1,0,2-0.9,2-2
			S450.8,758.9,449.7,758.9z"/>
	</g>
	<path opacity="0.2" fill="#FF6AD4" d="M462,762.3c0-10.9-8.9-19.8-19.8-19.8c-10.9,0-19.8,8.9-19.8,19.8c0,10.9,8.9,19.8,19.8,19.8
		C453.1,782.1,462,773.2,462,762.3z M442.2,778.1c-8.7,0-15.8-7.1-15.8-15.8c0-8.7,7.1-15.8,15.8-15.8c8.7,0,15.8,7.1,15.8,15.8
		C458,771,450.9,778.1,442.2,778.1z"/>
	<path opacity="0.2" fill="#FF6AD4" d="M448.1,760.3h-4v-5.9c0-1.1-0.9-2-2-2c-1.1,0-2,0.9-2,2v7.9c0,1.1,0.9,2,2,2h5.9
		c1.1,0,2-0.9,2-2C450.1,761.2,449.2,760.3,448.1,760.3z"/>
</g>
<g>
	<g id="icon_42_">
		<path fill="#A06AFF" d="M615.9,779.4H602c-4,0-7.2-3.2-7.2-7.2v-13.8c0-4,3.2-7.2,7.2-7.2h13.8c4,0,7.2,3.2,7.2,7.2v13.8
			C623,776.1,619.8,779.4,615.9,779.4z M602,755.2c-1.7,0-3.2,1.4-3.2,3.2v13.8c0,1.7,1.4,3.2,3.2,3.2h13.8c1.7,0,3.2-1.4,3.2-3.2
			v-13.8c0-1.7-1.4-3.2-3.2-3.2H602z"/>
		<path fill="#FF6AD4" d="M627.6,769.3c-0.8,0-1.6-0.5-1.9-1.3c-0.4-1,0.2-2.2,1.2-2.6c1.3-0.5,2.2-1.7,2.2-3v-14
			c0-1.8-1.4-3.2-3.2-3.2h-14c-1.4,0-2.6,0.9-3,2.2c-0.4,1-1.5,1.6-2.6,1.2c-1-0.4-1.6-1.5-1.2-2.6c1-2.9,3.8-4.8,6.8-4.8h14
			c4,0,7.3,3.3,7.3,7.3v14c0,3.1-1.9,5.8-4.8,6.8C628.1,769.3,627.8,769.3,627.6,769.3z"/>
	</g>
	<path opacity="0.2" fill="#FF6AD4" d="M600.5,780.8h13.8c4,0,7.2-3.2,7.2-7.2v-13.8c0-4-3.2-7.2-7.2-7.2h-13.8
		c-4,0-7.2,3.2-7.2,7.2v13.8C593.3,777.5,596.5,780.8,600.5,780.8z M597.3,759.8c0-1.7,1.4-3.2,3.2-3.2h13.8c1.7,0,3.2,1.4,3.2,3.2
		v13.8c0,1.7-1.4,3.2-3.2,3.2h-13.8c-1.7,0-3.2-1.4-3.2-3.2V759.8z"/>
	<path opacity="0.2" fill="#FF6AD4" d="M624.3,742.5h-14c-3.1,0-5.8,1.9-6.8,4.8c-0.4,1,0.2,2.2,1.2,2.6c1,0.4,2.2-0.2,2.6-1.2
		c0.5-1.3,1.7-2.2,3-2.2h14c1.8,0,3.2,1.4,3.2,3.2v14c0,1.4-0.9,2.6-2.2,3c-1,0.4-1.6,1.5-1.2,2.6c0.3,0.8,1.1,1.3,1.9,1.3
		c0.2,0,0.5,0,0.7-0.1c2.9-1,4.8-3.8,4.8-6.8v-14C631.5,745.8,628.3,742.5,624.3,742.5z"/>
</g>
<g>
	<g id="icon_1_">
		<path fill="#A06AFF" d="M452.4,1131.7h-19.9c-6,0-10.9-4.9-10.9-10.9c0-0.2,0-0.4,0-0.6c0-0.1,0-0.2,0-0.4
			c0-6.6,5.4-11.9,11.9-11.9c1.3,0,2.6,0.2,3.8,0.7c2.7-5.2,8.1-8.6,14.1-8.6c8.8,0,15.9,7.1,15.9,15.9c0,6.7-4.2,12.7-10.6,15
			C455.5,1131.4,454,1131.7,452.4,1131.7z M433.5,1111.8c-4.4,0-8,3.6-8,8c0,0.1,0,0.3,0,0.4l0,0.1l0,0.1c0,0.1,0,0.3,0,0.4
			c0,3.8,3.1,7,7,7h19.9c1,0,1.9-0.2,2.9-0.6c5.7-2.1,9.1-7.9,7.8-13.8c-0.9-4.2-4-7.6-8.1-8.8c-6.3-2-12.7,1.5-14.8,7.4l0,0
			c-0.4,1.2-1.8,1.7-2.8,1.1h0C436.2,1112.2,434.9,1111.8,433.5,1111.8z"/>
	</g>
	<path opacity="0.2" fill="#FF6AD4" d="M449.9,1101.3c-6,0-11.4,3.4-14.1,8.6c-1.2-0.4-2.5-0.7-3.8-0.7c-6.6,0-11.9,5.4-11.9,11.9
		c0,0.2,0,0.4,0,0.4c0,0.2,0,0.4,0,0.6c0,6,4.9,10.9,10.9,10.9h19.9c1.5,0,3.1-0.3,4.4-0.9c6.3-2.3,10.6-8.3,10.6-15
		C465.8,1108.5,458.6,1101.3,449.9,1101.3z M453.7,1128.5c-0.9,0.4-1.9,0.6-2.9,0.6H431c-3.8,0-7-3.1-7-7c0-0.1,0-0.2,0-0.4l0-0.1
		l0-0.1c0-0.1,0-0.3,0-0.4c0-4.4,3.6-8,8-8c1.3,0,2.6,0.4,3.9,1c1.1,0.6,2.4,0.1,2.8-1.1v0c2.1-5.9,8.5-9.4,14.8-7.4
		c4.1,1.3,7.2,4.7,8.1,8.8C462.8,1120.7,459.4,1126.5,453.7,1128.5z"/>
</g>
<g>
	<g id="icon_63_">
		<path fill="#A06AFF" d="M116.5,1122.7h-18c-2,0-3.7-1.6-3.8-3.5l-5.4-18.2h-4.5c-1.1,0-2-0.9-2-2c0-1.1,0.9-2,2-2h5.9
			c0.9,0,1.6,0.6,1.9,1.4l5.9,19.8c0.1,0.2,0.1,0.4,0.1,0.6l17.9-0.1c0-0.2-0.1-0.3,0-0.5l3.2-11.4h-15.2c-1.1,0-2-0.9-2-2
			c0-1.1,0.9-2,2-2h17.8c0.6,0,1.2,0.3,1.6,0.8c0.4,0.5,0.5,1.1,0.3,1.7l-3.9,13.7C120.2,1121.2,118.5,1122.7,116.5,1122.7z"/>
		<circle fill="#FF6AD4" cx="96.6" cy="1130.6" r="4"/>
		<circle fill="#FF6AD4" cx="118.4" cy="1130.6" r="4"/>
	</g>
	<path opacity="0.2" fill="#FF6AD4" d="M120.7,1104.4H103c-1.1,0-2,0.9-2,2c0,1.1,0.9,2,2,2h15.2l-3.2,11.4c-0.1,0.2,0,0.3,0,0.5
		l-17.9,0.1c0-0.2,0-0.4-0.1-0.6l-5.9-19.8c-0.2-0.8-1-1.4-1.9-1.4h-5.9c-1.1,0-2,0.9-2,2c0,1.1,0.9,2,2,2h4.5l5.4,18.2
		c0.2,2,1.8,3.5,3.8,3.5h18c2,0,3.7-1.6,3.9-3.5l3.9-13.7c0.2-0.6,0-1.2-0.3-1.7C121.9,1104.7,121.3,1104.4,120.7,1104.4z"/>
	<circle opacity="0.2" fill="#FF6AD4" cx="95" cy="1132.1" r="4"/>
	<circle opacity="0.2" fill="#FF6AD4" cx="116.8" cy="1132.1" r="4"/>
</g>
<g>
	<g id="icon_66_">
		<path fill="#A06AFF" d="M614.9,1134c-10,0-18.2-8.2-18.2-18.2s8.2-18.2,18.2-18.2s18.2,8.2,18.2,18.2S625,1134,614.9,1134z
			 M614.9,1101.7c-7.8,0-14.1,6.3-14.1,14.1s6.3,14.1,14.1,14.1c7.8,0,14.1-6.3,14.1-14.1S622.7,1101.7,614.9,1101.7z"/>
		<path fill="#FF6AD4" d="M621.1,1118.9c0-2.8-2.3-5-5-5c0,0,0,0,0,0c0,0,0,0,0,0h-3c-0.5,0-1-0.5-1-1c0-0.5,0.5-1,1-1h3
			c1.1,0,2-0.9,2-2c0-0.8-0.4-1.4-1-1.8c0-0.1,0-0.2,0-0.3v-2c0-1.1-0.9-2-2-2c-1.1,0-2,0.9-2,2v2c0,0,0,0,0,0c-2.8,0-5,2.3-5,5
			c0,2.8,2.3,5,5,5h3c0,0,0,0,0,0c0,0,0,0,0,0c0.5,0,1,0.5,1,1s-0.5,1-1,1h-5c-1.1,0-2,0.9-2,2c0,1.1,0.9,2,2,2h2v2c0,1.1,0.9,2,2,2
			c1.1,0,2-0.9,2-2v-2c0,0,0-0.1,0-0.1C619.3,1123.4,621.1,1121.3,621.1,1118.9z"/>
	</g>
	<path opacity="0.2" fill="#FF6AD4" d="M613.4,1099.1c-10,0-18.2,8.2-18.2,18.2s8.2,18.2,18.2,18.2s18.2-8.2,18.2-18.2
		S623.4,1099.1,613.4,1099.1z M613.4,1131.4c-7.8,0-14.1-6.3-14.1-14.1c0-7.8,6.3-14.1,14.1-14.1s14.1,6.3,14.1,14.1
		C627.5,1125,621.2,1131.4,613.4,1131.4z"/>
	<path opacity="0.2" fill="#FF6AD4" d="M614.4,1115.2C614.4,1115.2,614.4,1115.2,614.4,1115.2
		C614.4,1115.2,614.4,1115.2,614.4,1115.2h-3.1c-0.5,0-1-0.5-1-1c0-0.5,0.5-1,1-1h3c1.1,0,2-0.9,2-2c0-0.8-0.4-1.4-1-1.8
		c0-0.1,0-0.2,0-0.3v-2c0-1.1-0.9-2-2-2c-1.1,0-2,0.9-2,2v2c0,0,0,0,0,0c-2.8,0-5,2.3-5,5c0,2.8,2.3,5,5,5h3c0,0,0,0,0,0
		c0,0,0,0,0,0c0.5,0,1,0.5,1,1s-0.5,1-1,1h-5c-1.1,0-2,0.9-2,2s0.9,2,2,2h2v2c0,1.1,0.9,2,2,2c1.1,0,2-0.9,2-2v-2c0,0,0-0.1,0-0.1
		c2.3-0.4,4.1-2.5,4.1-5C619.5,1117.5,617.2,1115.2,614.4,1115.2z"/>
</g>
<g>
	<g id="icon_32_">
		<path fill="#A06AFF" d="M283.6,1097.5c-1-0.6-2.2-0.2-2.8,0.7l-8.6,14.9l-8.6,14.9c-0.6,1-0.2,2.2,0.7,2.8c0.3,0.2,0.7,0.3,1,0.3
			c0.7,0,1.4-0.4,1.8-1l8.6-14.9l8.6-14.9C284.9,1099.3,284.6,1098.1,283.6,1097.5z"/>
		<path fill="#FF6AD4" d="M260.6,1134.4c-3.8,0-6.9-3.1-6.9-6.9c0-3.8,3.1-6.9,6.9-6.9c3.8,0,6.9,3.1,6.9,6.9
			C267.5,1131.3,264.4,1134.4,260.6,1134.4z M260.6,1124.7c-1.6,0-2.8,1.3-2.8,2.8c0,1.6,1.3,2.8,2.8,2.8c1.6,0,2.8-1.3,2.8-2.8
			C263.5,1126,262.2,1124.7,260.6,1124.7z"/>
		<path fill="#A06AFF" d="M271.1,1111.2c-0.7,0-1.4-0.4-1.8-1l-5.7-9.9c-0.6-1-0.2-2.2,0.7-2.8c1-0.6,2.2-0.2,2.8,0.7l5.7,9.9
			c0.6,1,0.2,2.2-0.7,2.8C271.8,1111.1,271.5,1111.2,271.1,1111.2z"/>
		<path fill="#A06AFF" d="M282.6,1131.1c-0.7,0-1.4-0.4-1.8-1l-5.7-9.9c-0.6-1-0.2-2.2,0.7-2.8c1-0.6,2.2-0.2,2.8,0.7l5.7,9.9
			c0.6,1,0.2,2.2-0.7,2.8C283.3,1131,283,1131.1,282.6,1131.1z"/>
		<path fill="#FF6AD4" d="M287.4,1134.4c-3.8,0-6.9-3.1-6.9-6.9c0-3.8,3.1-6.9,6.9-6.9c3.8,0,6.9,3.1,6.9,6.9
			C294.3,1131.3,291.2,1134.4,287.4,1134.4z M287.4,1124.7c-1.6,0-2.8,1.3-2.8,2.8c0,1.6,1.3,2.8,2.8,2.8c1.6,0,2.8-1.3,2.8-2.8
			C290.2,1126,288.9,1124.7,287.4,1124.7z"/>
	</g>
	<path opacity="0.2" fill="#FF6AD4" d="M274.2,1116.6l8.6-14.9c0.6-1,0.2-2.2-0.7-2.8c-1-0.6-2.2-0.2-2.8,0.7l-8.6,14.9l-6,10.4
		c-1.3-1.8-3.3-2.9-5.6-2.9c-3.8,0-6.9,3.1-6.9,6.9c0,3.8,3.1,6.9,6.9,6.9c2.8,0,5.1-1.6,6.2-4c0.1-0.1,0.2-0.2,0.3-0.4
		L274.2,1116.6z M259.1,1131.8c-1.6,0-2.8-1.3-2.8-2.8c0-1.6,1.3-2.8,2.8-2.8c1.6,0,2.8,1.3,2.8,2.8
		C261.9,1130.5,260.6,1131.8,259.1,1131.8z"/>
	<path opacity="0.2" fill="#FF6AD4" d="M269.6,1112.6c0.3,0,0.7-0.1,1-0.3c1-0.6,1.3-1.8,0.7-2.8l-5.7-9.9c-0.6-1-1.8-1.3-2.8-0.7
		c-1,0.6-1.3,1.8-0.7,2.8l5.7,9.9C268.2,1112.3,268.9,1112.6,269.6,1112.6z"/>
	<path opacity="0.2" fill="#FF6AD4" d="M285.8,1122c-2.3,0-4.4,1.2-5.6,2.9l-3.1-5.4c-0.6-1-1.8-1.3-2.8-0.7c-1,0.6-1.3,1.8-0.7,2.8
		l5.7,9.9c0.1,0.1,0.2,0.3,0.3,0.4c1.1,2.3,3.5,4,6.2,4c3.8,0,6.9-3.1,6.9-6.9C292.7,1125.1,289.6,1122,285.8,1122z M285.8,1131.8
		c-1.6,0-2.8-1.3-2.8-2.8c0-1.6,1.3-2.8,2.8-2.8c1.6,0,2.8,1.3,2.8,2.8C288.6,1130.5,287.4,1131.8,285.8,1131.8z"/>
</g>
<g>
	<g>
		<g id="icon_23_">
			<path fill="#656D79" d="M273.1,1576c-1,0-2-0.4-2.8-1.2l-5.9-5.1l-4.7,4.7c-0.6,0.6-1.4,0.7-2.2,0.4c-0.7-0.3-1.2-1-1.2-1.8
				v-11.2l-5.8-6.8c-1-1-1.3-2.4-1-3.8c0.4-1.4,1.4-2.4,2.8-2.8l35.4-11.7c1.5-0.4,3,0,4,1c1,1,1.4,2.5,1,3.9c0,0.1-0.1,0.2-0.1,0.3
				l-15.6,31.3c-0.4,1.3-1.5,2.2-2.8,2.6C273.8,1575.9,273.4,1576,273.1,1576z M264.3,1565c0.5,0,0.9,0.2,1.3,0.5l7.4,6.4
				c0-0.1,0.2-0.1,0.3-0.2l15.5-31.1l-35.3,11.7c0,0,0,0.1,0,0.1l6.4,7.4c0.3,0.4,0.5,0.8,0.5,1.3v7.2l2.6-2.6
				C263.3,1565.2,263.8,1565,264.3,1565z"/>
		</g>
		<g id="icon_22_">
			<path fill="#656D79" d="M434.7,1575.8c-0.3,0-0.7-0.1-1-0.3c-0.6-0.3-1-1-1-1.7v-5.9h-2c-4.3,0-7.8-3.5-7.8-7.8v-15.7
				c0-4.3,3.5-7.8,7.8-7.8h23.5c4.3,0,7.8,3.5,7.8,7.8v15.7c0,4.3-3.5,7.8-7.8,7.8h-5.4l-13.3,7.6
				C435.4,1575.7,435.1,1575.8,434.7,1575.8z M430.8,1540.6c-2.2,0-3.9,1.8-3.9,3.9v15.7c0,2.2,1.8,3.9,3.9,3.9h3.9c1.1,0,2,0.9,2,2
				v4.5l10.8-6.2c0.3-0.2,0.6-0.3,1-0.3h5.9c2.2,0,3.9-1.8,3.9-3.9v-15.7c0-2.2-1.8-3.9-3.9-3.9H430.8z"/>
			<circle fill="#656D79" cx="434.3" cy="1552.3" r="2"/>
			<circle fill="#656D79" cx="442.8" cy="1552.3" r="2"/>
			<circle fill="#656D79" cx="451.3" cy="1552.3" r="2"/>
		</g>
		<g id="icon_21_">
			<path fill="#656D79" d="M613.9,1559.7c-5.5,0-9.9-4.4-9.9-9.9c0-5.5,4.4-9.9,9.9-9.9c5.5,0,9.9,4.4,9.9,9.9
				C623.8,1555.3,619.4,1559.7,613.9,1559.7z M613.9,1543.9c-3.3,0-5.9,2.7-5.9,5.9s2.7,5.9,5.9,5.9s5.9-2.7,5.9-5.9
				S617.2,1543.9,613.9,1543.9z"/>
		</g>
		<g>
			<path fill="#656D79" d="M630.4,1574.7L630.4,1574.7c-0.9,0-1.8-0.6-1.9-1.6c-0.7-3.6-3.9-6.3-7.7-6.3h-13.1c-3.8,0-7,2.7-7.7,6.3
				c-0.2,0.9-1,1.6-1.9,1.6l0,0c-1.2,0-2.2-1.1-2-2.3c1.1-5.4,5.9-9.5,11.7-9.5h13.1c5.8,0,10.6,4.1,11.7,9.5
				C632.6,1573.6,631.6,1574.7,630.4,1574.7z"/>
		</g>
		<g id="icon_20_">
			<path fill="#656D79" d="M95.6,1564.3c-6.7,0-12.1-5.4-12.1-12.1c0-6.7,5.4-12.1,12.1-12.1s12.1,5.4,12.1,12.1
				C107.7,1558.9,102.2,1564.3,95.6,1564.3z M95.6,1544.2c-4.4,0-8,3.6-8,8s3.6,8,8,8s8-3.6,8-8S100,1544.2,95.6,1544.2z"/>
			<path fill="#656D79" d="M113.7,1572.3c-0.5,0-1-0.2-1.4-0.6l-10.1-10.1c-0.8-0.8-0.8-2.1,0-2.8c0.8-0.8,2.1-0.8,2.8,0l10.1,10.1
				c0.8,0.8,0.8,2.1,0,2.8C114.7,1572.1,114.2,1572.3,113.7,1572.3z"/>
		</g>
	</g>
	<g>
		<g id="icon_19_">
			<path fill="#656D79" d="M117.9,1724.9h-33c-1.1,0-2.1-0.9-2.1-2.1c0-1.1,0.9-2.1,2.1-2.1h33c1.1,0,2.1,0.9,2.1,2.1
				C120,1724,119,1724.9,117.9,1724.9z"/>
			<path fill="#656D79" d="M117.9,1737.3h-33c-1.1,0-2.1-0.9-2.1-2.1s0.9-2.1,2.1-2.1h33c1.1,0,2.1,0.9,2.1,2.1
				S119,1737.3,117.9,1737.3z"/>
			<path fill="#656D79" d="M106.9,1749.7h-22c-1.1,0-2.1-0.9-2.1-2.1c0-1.1,0.9-2.1,2.1-2.1h22c1.1,0,2.1,0.9,2.1,2.1
				C108.9,1748.7,108,1749.7,106.9,1749.7z"/>
		</g>
		<g>
			<path fill="#656D79" d="M458.8,1746.2l-24.1-24.1c-0.8-0.8-2.1-0.8-2.8,0c-0.8,0.8-0.8,2.1,0,2.8l24.1,24.1
				c0.4,0.4,0.9,0.6,1.4,0.6c0.5,0,1-0.2,1.4-0.6C459.6,1748.3,459.6,1747,458.8,1746.2z"/>
			<path fill="#656D79" d="M434.8,1749.1l24.1-24.1c0.8-0.8,0.8-2.1,0-2.8c-0.8-0.8-2.1-0.8-2.8,0l-24.1,24.1
				c-0.4,0.4-0.6,0.9-0.6,1.4c0,0.5,0.2,1,0.6,1.4C432.7,1749.9,434,1749.9,434.8,1749.1z"/>
		</g>
		<g id="icon_18_">
			<path fill="#656D79" d="M278.7,1749.7c-0.5,0-1-0.2-1.4-0.6c-0.8-0.8-0.8-2,0-2.8l12.5-12.5l-12.5-12.5c-0.8-0.8-0.8-2,0-2.8
				c0.8-0.8,2-0.8,2.8,0l13.9,13.9c0.8,0.8,0.8,2,0,2.8l-13.9,13.9C279.7,1749.5,279.2,1749.7,278.7,1749.7z"/>
			<path fill="#656D79" d="M292.6,1735.7h-35.9c-1.1,0-2-0.9-2-2s0.9-2,2-2h35.9c1.1,0,2,0.9,2,2S293.7,1735.7,292.6,1735.7z"/>
		</g>
		<g>
			<path fill="#656D79" d="M613.5,1748.9l-11.5-13.8c-0.7-0.8-0.6-2.1,0.3-2.8c0.8-0.7,2.1-0.6,2.8,0.3l11.5,13.8
				c0.4,0.4,0.5,1,0.5,1.5c0,0.5-0.3,1-0.7,1.4C615.5,1749.9,614.3,1749.8,613.5,1748.9z"/>
			<path fill="#656D79" d="M616.9,1748.7l15.9-23.5c0.6-0.9,0.4-2.2-0.5-2.8s-2.2-0.4-2.8,0.5l-15.9,23.5c-0.3,0.5-0.4,1-0.3,1.5
				c0.1,0.5,0.4,1,0.8,1.3C615,1749.9,616.3,1749.6,616.9,1748.7z"/>
		</g>
	</g>
	<g>
		<g>
			<g id="icon_16_">
				<path fill="#656D79" d="M614.4,1384.4c-3.1,0-5.6-2.5-5.6-5.6s2.5-5.6,5.6-5.6c3.1,0,5.6,2.5,5.6,5.6S617.5,1384.4,614.4,1384.4
					z M614.4,1377c-1,0-1.9,0.8-1.9,1.9s0.8,1.9,1.9,1.9s1.9-0.8,1.9-1.9S615.4,1377,614.4,1377z"/>
				<path fill="#656D79" d="M614.4,1397.6c-2.1,0-3.7-1.7-3.7-3.7l0-0.3c0-0.1,0.1-1.1-0.9-1.7c-0.4-0.2-0.8-0.4-1.2-0.5
					c-1.2-0.3-1.9,0.6-1.9,0.6l-0.2,0.2c-1.4,1.4-3.9,1.4-5.3,0c-1.5-1.5-1.5-3.8,0-5.3l0.2-0.2c0.1-0.1,0.8-0.7,0.6-1.9
					c-0.1-0.4-0.3-0.8-0.5-1.2c-0.6-1-1.6-0.9-1.8-0.9l-0.3,0c-2.1,0-3.7-1.7-3.7-3.7s1.7-3.7,3.7-3.7l0.3,0c0.2,0,1.1,0.1,1.7-0.9
					c0.2-0.4,0.4-0.8,0.5-1.2c0.3-1.2-0.5-1.8-0.6-1.9l-0.2-0.2c-1.5-1.5-1.5-3.8,0-5.3c1.4-1.4,3.9-1.4,5.3,0l0.2,0.2
					c0.1,0.1,0.7,0.8,1.9,0.6c0.4-0.1,0.8-0.3,1.2-0.5c1-0.6,0.9-1.6,0.9-1.8l0-0.3c0-2.1,1.7-3.7,3.7-3.7s3.7,1.7,3.7,3.7l0,0.3
					c0,0.1-0.1,1.1,0.9,1.7c0.4,0.2,0.8,0.4,1.2,0.5c1.2,0.3,1.9-0.6,1.9-0.6l0.2-0.2c1.4-1.4,3.9-1.4,5.3,0c1.5,1.5,1.5,3.8,0,5.3
					l-0.2,0.2c-0.1,0.1-0.8,0.7-0.6,1.9c0.1,0.4,0.3,0.8,0.5,1.2c0.6,1,1.6,0.9,1.8,0.9l0.3,0c2.1,0,3.7,1.7,3.7,3.7
					s-1.7,3.7-3.7,3.7l-0.3,0c-0.1,0-1.1-0.1-1.7,0.9c-0.2,0.4-0.4,0.8-0.5,1.2c-0.3,1.2,0.5,1.8,0.6,1.9l0.2,0.2
					c1.5,1.5,1.5,3.8,0,5.3c-1.4,1.4-3.9,1.4-5.3,0l-0.2-0.2c-0.1-0.1-0.7-0.9-1.9-0.6c-0.4,0.1-0.8,0.3-1.2,0.5
					c-1,0.6-0.9,1.6-0.9,1.8l0,0.3C618.1,1395.9,616.5,1397.6,614.4,1397.6z M608,1387.4c0.4,0,0.9,0,1.4,0.2c0.8,0.2,1.6,0.5,2.3,1
					c1.8,1.2,2.5,2.9,2.7,4.2c0.1-1.3,0.8-3.1,2.7-4.2c0.7-0.5,1.5-0.8,2.3-1c2.1-0.5,3.8,0.2,4.9,1.1c-0.9-1.1-1.6-2.7-1.1-4.9
					c0.2-0.8,0.5-1.6,1-2.3c1.2-1.8,2.9-2.5,4.2-2.7c-1.3-0.1-3.1-0.8-4.2-2.7c-0.5-0.7-0.8-1.5-1-2.3c-0.5-2.1,0.2-3.8,1.1-4.9
					c-1.1,0.9-2.7,1.6-4.9,1.1c-0.8-0.2-1.6-0.5-2.3-1c-1.8-1.2-2.5-2.9-2.7-4.2c-0.1,1.3-0.8,3.1-2.7,4.2c-0.7,0.5-1.5,0.8-2.3,1
					c-2.1,0.5-3.8-0.2-4.9-1.1c0.9,1.1,1.6,2.7,1.1,4.9c-0.2,0.8-0.5,1.6-1,2.3c-1.2,1.8-2.9,2.5-4.2,2.7c1.3,0.1,3.1,0.8,4.2,2.7
					c0.5,0.7,0.8,1.5,1,2.3c0.5,2.1-0.2,3.8-1.1,4.9C605.3,1388,606.5,1387.4,608,1387.4z"/>
			</g>
			<path fill="#656D79" d="M271.3,1393.2c-0.4,0-0.9-0.1-1.2-0.4c-0.4-0.3-8.8-6.6-12-10.8c-2.7-3.5-3.8-7.5-3-10.8
				c0.6-2.6,2.3-4.6,5-5.8c3.8-1.8,8.3-1,11.3,1.8c3-2.8,7.4-3.6,11.3-1.8c2.6,1.2,4.3,3.2,5,5.8c0.8,3.3-0.3,7.3-3,10.8
				c-3.2,4.1-11.6,10.5-12,10.8C272.2,1393.1,271.8,1393.2,271.3,1393.2z M264.3,1368.6c-0.8,0-1.7,0.2-2.6,0.6
				c-1.5,0.7-2.4,1.7-2.7,3c-0.5,2.1,0.4,4.9,2.3,7.3c2.2,2.8,7.5,7.1,10,9c2.4-1.9,7.8-6.2,10-9c1.9-2.5,2.8-5.3,2.3-7.3
				c-0.3-1.3-1.2-2.4-2.7-3l0,0c-3.2-1.5-6.4,0.1-7.8,2.3c-0.8,1.2-2.8,1.2-3.5,0C268.6,1369.9,266.6,1368.6,264.3,1368.6z"/>
			<path fill="#656D79" d="M433.2,1397.6c-0.8,0-1.6-0.2-2.2-0.7c-1.3-1-1.9-2.7-1.4-4.2l2.9-8.9l-7.5-5.6c-1.3-1-1.9-2.6-1.3-4.2
				c0.5-1.6,1.9-2.6,3.6-2.6h9.2l2.8-8.7c0.5-1.6,2-2.6,3.6-2.6c1.6,0,3.1,1.1,3.6,2.6l2.8,8.7h9.2c1.7,0,3.1,1,3.6,2.6
				c0.5,1.6,0,3.2-1.3,4.2l-7.5,5.6l2.9,8.8c0.5,1.6,0,3.2-1.4,4.2c-1.3,1-3.1,1-4.4,0l-7.4-5.4l-7.4,5.4
				C434.8,1397.4,434,1397.6,433.2,1397.6z M428.4,1375.5l6.8,5c1.3,1,1.8,2.7,1.3,4.2l-2.6,8l6.7-4.9c1.3-1,3.1-1,4.4,0l6.7,4.8
				l-2.6-8c-0.5-1.5,0-3.2,1.3-4.2l6.8-5H449c-1.6,0-3.1-1.1-3.6-2.6l-2.5-7.8l-2.5,7.8c-0.5,1.6-2,2.6-3.6,2.6H428.4z
				 M458.5,1375.5L458.5,1375.5L458.5,1375.5z"/>
		</g>
		<g>
			<path fill="#656D79" d="M104.1,1389.4c0,2.4-1.9,4.3-4.3,4.3c-2.4,0-4.3-1.9-4.3-4.3c0-0.1,0-0.2,0-0.3h-4c0,0.1,0,0.2,0,0.3
				c0,4.6,3.7,8.3,8.3,8.3c4.6,0,8.3-3.7,8.3-8.3c0-0.1,0-0.2,0-0.3h-4C104.1,1389.2,104.1,1389.3,104.1,1389.4z"/>
			<path fill="#656D79" d="M114.8,1385.3h-2.2v-12.6c0-7.1-5.8-12.8-12.8-12.8c-7.1,0-12.8,5.8-12.8,12.8v12.6h-2.2
				c-1.1,0-2,0.9-2,2c0,1.1,0.9,2,2,2H87h4.2h0.3h4h8.5h4h0.8h3.8h2.2c1.1,0,2-0.9,2-2C116.8,1386.2,115.9,1385.3,114.8,1385.3z
				 M108.6,1385.3h-1.7h-6.6h-0.9h-6.6H91v-12.6c0-4.9,4-8.8,8.8-8.8c4.9,0,8.8,4,8.8,8.8V1385.3z"/>
		</g>
	</g>
	<g>
		<g id="icon_15_">
			<path fill="#656D79" d="M611.7,2107.2c-1.1,0-1.9-0.9-1.9-1.9v-33.1c0-1.1,0.9-1.9,1.9-1.9c1.1,0,1.9,0.9,1.9,1.9v33.1
				C613.7,2106.3,612.8,2107.2,611.7,2107.2z"/>
			<path fill="#656D79" d="M617.5,2093.5c-1.1,0-1.9-0.9-1.9-1.9c0-1.1,0.9-1.9,1.9-1.9h11.5c0.1,0,0.1-0.1,0.1-0.3
				c0-0.2-0.1-0.2-0.1-0.2c-0.2-0.1-0.4-0.3-0.5-0.5l-2.8-3.7c-0.5-0.7-0.5-1.7,0-2.4l2.8-3.7c0.1-0.2,0.3-0.3,0.5-0.5
				c0,0,0.1-0.1,0.1-0.2c0-0.1,0-0.2-0.1-0.3l-11.6,0c-1.1,0-1.9-0.9-1.9-1.9c0-1.1,0.9-1.9,1.9-1.9h11.5c1.9,0,3.4,1.2,3.9,3
				c0.5,1.7-0.1,3.4-1.5,4.5l-1.8,2.3l1.7,2.3c1.4,1,1.9,2.8,1.5,4.5c-0.5,1.8-2,2.9-3.8,3H617.5z"/>
		</g>
		<g id="icon_14_">
			<path fill="#656D79" d="M101.8,2108.2c-2,0-4-0.7-5.6-2.3l-11.1-11c-3.1-3-3.1-8-0.1-11.1l13.8-14c0.4-0.4,0.9-0.6,1.4-0.6
				l17.5-0.1c2.1,0,3.8,1.7,3.9,3.8l0.1,17.5c0,0.5-0.2,1-0.6,1.4l-13.8,14C105.9,2107.4,103.8,2108.2,101.8,2108.2z M101.1,2073.2
				l-13.2,13.4c-1.5,1.5-1.5,4,0,5.5l11.1,11c1.5,1.5,4,1.5,5.5,0l13.2-13.4l-0.1-16.7L101.1,2073.2z"/>
			<circle fill="#656D79" cx="110.5" cy="2080.8" r="2.9"/>
		</g>
		<g id="icon_13_">
			<path fill="#656D79" d="M288.1,2096.7h-4c-1.1,0-2-0.9-2-2s0.9-2,2-2h4c1.1,0,2,0.9,2,2S289.2,2096.7,288.1,2096.7z"/>
			<path fill="#656D79" d="M292.3,2086.7h-34c-1.1,0-2-0.9-2-2s0.9-2,2-2h34c1.1,0,2,0.9,2,2S293.4,2086.7,292.3,2086.7z"/>
			<path fill="#656D79" d="M288.3,2104.7h-26c-4.4,0-8-3.6-8-8v-16c0-4.4,3.6-8,8-8h26c4.4,0,8,3.6,8,8v16
				C296.3,2101.1,292.7,2104.7,288.3,2104.7z M262.3,2076.7c-2.2,0-4,1.8-4,4v16c0,2.2,1.8,4,4,4h26c2.2,0,4-1.8,4-4v-16
				c0-2.2-1.8-4-4-4H262.3z"/>
		</g>
		<g id="icon_12_">
			<path fill="#656D79" d="M457.5,2092.8c-0.5,0-1-0.2-1.4-0.6c-0.8-0.8-0.8-2,0-2.8l5.6-5.6c2.3-2.3,2.3-6.1,0-8.5
				c-2.3-2.3-6.1-2.3-8.5,0l-5.6,5.6c-0.8,0.8-2,0.8-2.8,0c-0.8-0.8-0.8-2,0-2.8l5.6-5.6c3.9-3.9,10.2-3.9,14.1,0
				c3.9,3.9,3.9,10.2,0,14.1l-5.6,5.6C458.6,2092.6,458,2092.8,457.5,2092.8z"/>
			<path fill="#656D79" d="M439.2,2107.8c-2.6,0-5.1-1-7-2.9c-3.9-3.9-3.9-10.2,0-14.1l5.6-5.6c0.8-0.8,2-0.8,2.8,0
				c0.8,0.8,0.8,2,0,2.8l-5.6,5.6c-2.3,2.3-2.3,6.1,0,8.5c2.3,2.3,6.1,2.3,8.5,0l5.6-5.6c0.8-0.8,2-0.8,2.8,0c0.8,0.8,0.8,2,0,2.8
				l-5.6,5.6C444.3,2106.8,441.8,2107.8,439.2,2107.8z"/>
			<path fill="#656D79" d="M444.9,2094.2c-0.5,0-1-0.2-1.4-0.6c-0.8-0.8-0.8-2,0-2.8l7-7c0.8-0.8,2-0.8,2.8,0c0.8,0.8,0.8,2,0,2.8
				l-7,7C445.9,2094,445.4,2094.2,444.9,2094.2z"/>
		</g>
	</g>
	<g>
		<g id="icon_11_">
			<path fill="#656D79" d="M99.3,1926.4v-9.3c0-1.7,1.4-3.1,3.1-3.1h2c1.7,0,3.1,1.4,3.1,3.1v9.3H99.3z"/>
		</g>
		<path fill="#656D79" d="M115.8,1926.4H90.9c-2.2,0-4-1.8-4-4v-16.7l-2.2-0.1c-0.9-0.1-1.7-0.7-1.9-1.6c-0.2-0.9,0.2-1.8,1-2.2
			l17.6-9.8c1.2-0.7,2.7-0.7,3.9,0l17.6,9.8c0.8,0.4,1.2,1.4,1,2.2c-0.2,0.9-1,1.5-1.9,1.6l-2.2,0.1v16.7
			C119.9,1924.6,118.1,1926.4,115.8,1926.4z M90.7,1902.6c0.2,0.3,0.4,0.7,0.4,1.2v18.6l24.8-0.1l-0.1-18.5c0-0.4,0.1-0.8,0.4-1.2
			l-12.8-7.1L90.7,1902.6z"/>
		<g id="icon_10_">
			<path fill="#656D79" d="M282.7,1927.9h-8.1c-1.1,0-2-0.9-2-2s0.9-2,2-2h8.1c2.2,0,4.1-1.8,4.1-4.1v-20.3c0-2.2-1.8-4.1-4.1-4.1
				h-8.1c-1.1,0-2-0.9-2-2c0-1.1,0.9-2,2-2h8.1c4.5,0,8.1,3.6,8.1,8.1v20.3C290.8,1924.3,287.2,1927.9,282.7,1927.9z"/>
			<path fill="#656D79" d="M274.6,1917.8c-0.5,0-1-0.2-1.4-0.6c-0.8-0.8-0.8-2.1,0-2.9l4.6-4.6l-4.6-4.6c-0.8-0.8-0.8-2.1,0-2.9
				c0.8-0.8,2.1-0.8,2.9,0l6.1,6.1c0.8,0.8,0.8,2.1,0,2.9l-6.1,6.1C275.6,1917.6,275.1,1917.8,274.6,1917.8z"/>
			<path fill="#656D79" d="M276.6,1911.7h-18.2c-1.1,0-2-0.9-2-2c0-1.1,0.9-2,2-2h18.2c1.1,0,2,0.9,2,2
				C278.7,1910.8,277.7,1911.7,276.6,1911.7z"/>
		</g>
		<g>
			<path fill="#656D79" d="M443.8,1891.4c-10.9,0-19.8,8.9-19.8,19.8c0,10.9,8.9,19.8,19.8,19.8c10.9,0,19.8-8.9,19.8-19.8
				C463.6,1900.3,454.7,1891.4,443.8,1891.4z M443.8,1927c-8.7,0-15.8-7.1-15.8-15.8c0-8.7,7.1-15.8,15.8-15.8
				c8.7,0,15.8,7.1,15.8,15.8C459.6,1919.9,452.5,1927,443.8,1927z"/>
			<path fill="#656D79" d="M449.7,1909.2h-4v-5.9c0-1.1-0.9-2-2-2c-1.1,0-2,0.9-2,2v7.9c0,1.1,0.9,2,2,2h5.9c1.1,0,2-0.9,2-2
				C451.7,1910.1,450.8,1909.2,449.7,1909.2z"/>
		</g>
		<g id="icon_9_">
			<path fill="#656D79" d="M615.9,1929.7H602c-4,0-7.2-3.2-7.2-7.2v-13.8c0-4,3.2-7.2,7.2-7.2h13.8c4,0,7.2,3.2,7.2,7.2v13.8
				C623,1926.5,619.8,1929.7,615.9,1929.7z M602,1905.5c-1.7,0-3.2,1.4-3.2,3.2v13.8c0,1.7,1.4,3.2,3.2,3.2h13.8
				c1.7,0,3.2-1.4,3.2-3.2v-13.8c0-1.7-1.4-3.2-3.2-3.2H602z"/>
			<path fill="#656D79" d="M627.6,1919.6c-0.8,0-1.6-0.5-1.9-1.3c-0.4-1,0.2-2.2,1.2-2.6c1.3-0.5,2.2-1.7,2.2-3v-14
				c0-1.8-1.4-3.2-3.2-3.2h-14c-1.4,0-2.6,0.9-3,2.2c-0.4,1-1.5,1.6-2.6,1.2c-1-0.4-1.6-1.5-1.2-2.6c1-2.9,3.8-4.8,6.8-4.8h14
				c4,0,7.3,3.3,7.3,7.3v14c0,3.1-1.9,5.8-4.8,6.8C628.1,1919.6,627.8,1919.6,627.6,1919.6z"/>
		</g>
	</g>
	<g>
		<g id="icon_8_">
			<path fill="#656D79" d="M452.4,2282.1h-19.9c-6,0-10.9-4.9-10.9-10.9c0-0.2,0-0.4,0-0.6c0-0.1,0-0.2,0-0.4
				c0-6.6,5.4-11.9,11.9-11.9c1.3,0,2.6,0.2,3.8,0.7c2.7-5.2,8.1-8.6,14.1-8.6c8.8,0,15.9,7.1,15.9,15.9c0,6.7-4.2,12.7-10.6,15
				C455.5,2281.7,454,2282.1,452.4,2282.1z M433.5,2262.2c-4.4,0-8,3.6-8,8c0,0.1,0,0.3,0,0.4l0,0.1l0,0.1c0,0.1,0,0.3,0,0.4
				c0,3.8,3.1,7,7,7h19.9c1,0,1.9-0.2,2.9-0.6c5.7-2.1,9.1-7.9,7.8-13.8c-0.9-4.2-4-7.6-8.1-8.8c-6.3-2-12.7,1.5-14.8,7.4l0,0
				c-0.4,1.2-1.8,1.7-2.8,1.1h0C436.2,2262.5,434.9,2262.2,433.5,2262.2z"/>
		</g>
		<g id="icon_7_">
			<path fill="#656D79" d="M116.5,2273.1h-18c-2,0-3.7-1.6-3.8-3.5l-5.4-18.2h-4.5c-1.1,0-2-0.9-2-2s0.9-2,2-2h5.9
				c0.9,0,1.6,0.6,1.9,1.4l5.9,19.8c0.1,0.2,0.1,0.4,0.1,0.6l17.9-0.1c0-0.2-0.1-0.3,0-0.5l3.2-11.4h-15.2c-1.1,0-2-0.9-2-2
				s0.9-2,2-2h17.8c0.6,0,1.2,0.3,1.6,0.8c0.4,0.5,0.5,1.1,0.3,1.7l-3.9,13.7C120.2,2271.5,118.5,2273.1,116.5,2273.1z"/>
			<circle fill="#656D79" cx="96.6" cy="2281" r="4"/>
			<circle fill="#656D79" cx="118.4" cy="2281" r="4"/>
		</g>
		<g id="icon_6_">
			<path fill="#656D79" d="M614.9,2284.3c-10,0-18.2-8.2-18.2-18.2c0-10,8.2-18.2,18.2-18.2s18.2,8.2,18.2,18.2
				C633.1,2276.2,625,2284.3,614.9,2284.3z M614.9,2252c-7.8,0-14.1,6.3-14.1,14.1s6.3,14.1,14.1,14.1c7.8,0,14.1-6.3,14.1-14.1
				S622.7,2252,614.9,2252z"/>
			<path fill="#656D79" d="M621.1,2269.2c0-2.8-2.3-5-5-5c0,0,0,0,0,0c0,0,0,0,0,0h-3c-0.5,0-1-0.5-1-1c0-0.5,0.5-1,1-1h3
				c1.1,0,2-0.9,2-2c0-0.8-0.4-1.4-1-1.8c0-0.1,0-0.2,0-0.3v-2c0-1.1-0.9-2-2-2c-1.1,0-2,0.9-2,2v2c0,0,0,0,0,0c-2.8,0-5,2.3-5,5
				c0,2.8,2.3,5,5,5h3c0,0,0,0,0,0c0,0,0,0,0,0c0.5,0,1,0.5,1,1s-0.5,1-1,1h-5c-1.1,0-2,0.9-2,2c0,1.1,0.9,2,2,2h2v2
				c0,1.1,0.9,2,2,2c1.1,0,2-0.9,2-2v-2c0,0,0-0.1,0-0.1C619.3,2273.7,621.1,2271.6,621.1,2269.2z"/>
		</g>
		<g id="icon_5_">
			<path fill="#656D79" d="M283.6,2247.8c-1-0.6-2.2-0.2-2.8,0.7l-8.6,14.9l-8.6,14.9c-0.6,1-0.2,2.2,0.7,2.8c0.3,0.2,0.7,0.3,1,0.3
				c0.7,0,1.4-0.4,1.8-1l8.6-14.9l8.6-14.9C284.9,2249.6,284.6,2248.4,283.6,2247.8z"/>
			<path fill="#656D79" d="M260.6,2284.8c-3.8,0-6.9-3.1-6.9-6.9c0-3.8,3.1-6.9,6.9-6.9c3.8,0,6.9,3.1,6.9,6.9
				C267.5,2281.7,264.4,2284.7,260.6,2284.8z M260.6,2275c-1.6,0-2.8,1.3-2.8,2.8c0,1.6,1.3,2.8,2.8,2.8c1.6,0,2.8-1.3,2.8-2.8
				C263.5,2276.3,262.2,2275,260.6,2275z"/>
			<path fill="#656D79" d="M271.1,2261.5c-0.7,0-1.4-0.4-1.8-1l-5.7-9.9c-0.6-1-0.2-2.2,0.7-2.8c1-0.6,2.2-0.2,2.8,0.7l5.7,9.9
				c0.6,1,0.2,2.2-0.7,2.8C271.8,2261.5,271.5,2261.5,271.1,2261.5z"/>
			<path fill="#656D79" d="M282.6,2281.4c-0.7,0-1.4-0.4-1.8-1l-5.7-9.9c-0.6-1-0.2-2.2,0.7-2.8c1-0.6,2.2-0.2,2.8,0.7l5.7,9.9
				c0.6,1,0.2,2.2-0.7,2.8C283.3,2281.3,283,2281.4,282.6,2281.4z"/>
			<path fill="#656D79" d="M287.4,2284.7c-3.8,0-6.9-3.1-6.9-6.9c0-3.8,3.1-6.9,6.9-6.9c3.8,0,6.9,3.1,6.9,6.9
				C294.3,2281.6,291.2,2284.7,287.4,2284.7z M287.4,2275c-1.6,0-2.8,1.3-2.8,2.8c0,1.6,1.3,2.8,2.8,2.8c1.6,0,2.8-1.3,2.8-2.8
				C290.2,2276.3,288.9,2275,287.4,2275z"/>
		</g>
	</g>
</g>
</svg>
