<?xml version="1.0" encoding="utf-8"?>
<!-- Generator: Adobe Illustrator 18.0.0, SVG Export Plug-In . SVG Version: 6.00 Build 0)  -->
<!DOCTYPE svg PUBLIC "-//W3C//DTD SVG 1.1//EN" "http://www.w3.org/Graphics/SVG/1.1/DTD/svg11.dtd">
<svg version="1.1" id="Layer_1" xmlns="http://www.w3.org/2000/svg" xmlns:xlink="http://www.w3.org/1999/xlink" x="0px" y="0px"
	 viewBox="0 0 140 100" enable-background="new 0 0 140 100" xml:space="preserve">
<path fill="none" stroke="#000000" stroke-miterlimit="10" d="M100.8,80"/>
<path fill="none" stroke="#000000" stroke-miterlimit="10" d="M35.7,80"/>
<path fill="none" stroke="#000000" stroke-miterlimit="10" d="M100.4,4.8"/>
<path fill="none" stroke="#000000" stroke-miterlimit="10" d="M35.4,4.8"/>
<path fill="none" stroke="#000000" stroke-miterlimit="10" d="M100.8,92"/>
<path fill="none" stroke="#000000" stroke-miterlimit="10" d="M35.7,92"/>
<path fill="#2E2E2E" stroke="#2C2E31" stroke-miterlimit="10" d="M75.2,9.6c-0.1-0.3-0.3-1.1-0.7-1.7c-0.9-1.4-2-2.7-3-4
	c-0.3-0.4-0.7-0.8-0.9-1.2c-0.1-0.1,0-0.5,0.1-0.5C70.9,2,71.2,2,71.4,2c0.1,0,0.2,0.1,0.3,0.2c1.7,1.7,3.2,3.5,4.2,5.7
	c0.2,0.3,0.3,0.7,0.4,1.1c0.4,1.1,0.2,2-0.5,2.9c-0.5,0.6-1.1,1.2-1.8,1.7c-0.9,0.7-1.8,1.4-2.8,2c-1,0.5-1.3,1.3-1.2,2.3
	c0.1,0.6,0,1.3,0,1.9c0,0.2,0,0.5-0.1,0.7c-0.1,0.1-0.3,0.3-0.4,0.3c-0.2,0-0.4-0.1-0.4-0.2c-0.1-0.3-0.2-0.6-0.2-0.9
	c0-0.8,0-1.5,0-2.3c0-0.7-0.2-1.2-0.9-1.6c-0.9-0.6-1.8-1.1-2.7-1.8c-0.8-0.6-1.5-1.3-2.2-2.1c-0.7-0.8-1-1.8-0.5-2.8
	c0.3-0.7,0.5-1.4,0.9-2.1c0.9-1.6,2.1-3,3.4-4.4c0.2-0.2,0.4-0.4,0.6-0.5C67.5,2,67.9,2,68,2.1c0.1,0.1,0.1,0.5,0,0.7
	c-0.2,0.3-0.5,0.6-0.7,0.9c-0.7,0.9-1.5,1.8-2.2,2.7c-0.5,0.7-0.9,1.5-1.3,2.3c-0.6,1.1-0.4,2.1,0.5,2.9c1.3,1.2,2.8,2.2,4.3,3.2
	c0.5,0.3,1,0.3,1.5,0c1.6-0.9,3.1-2,4.5-3.3C75,11.1,75.3,10.6,75.2,9.6z"/>
<path fill="#2E2E2E" stroke="#2C2E31" stroke-miterlimit="10" d="M69.4,22.6c0.2,0.3,0.5,0.5,0.5,0.7c0.1,0.4,0.1,0.9,0.1,1.3
	c0,4.7,0,9.3,0,14c0,0.4,0,0.9-0.1,1.3c0,0.2-0.3,0.4-0.5,0.5c-0.4,0.1-0.6-0.2-0.6-0.6c-0.1-0.5-0.1-1-0.1-1.5c0-3.8,0-7.7,0-11.5
	c0-0.6,0.1-1.3-0.2-1.8c-1.4,0.5-4.3,2.6-5.7,4c0.3,0.2,0.5,0.5,0.8,0.7c1,0.5,2,0.9,2.9,1.4c0.4,0.2,0.4,0.5,0,1.2
	c-1.5-0.4-2.9-1.2-4.3-2c-1.1-0.6-1.1-1.7-0.2-2.6c0.2-0.2,0.4-0.3,0.6-0.5c1.9-1.4,3.8-2.8,5.7-4.2C68.7,23,69,22.8,69.4,22.6z"/>
<path fill="#2E2E2E" stroke="#2C2E31" stroke-width="2" stroke-miterlimit="10" d="M71.6,9.7c0,1.3-1.1,2.3-2.4,2.2
	c-1.2-0.1-2.1-1.1-2.1-2.3c0-1.3,1-2.3,2.3-2.3C70.7,7.3,71.6,8.4,71.6,9.7z M69.4,10.6c0.5,0,1-0.4,0.9-1c0-0.5-0.4-0.9-0.8-0.9
	c-0.5-0.1-1,0.3-1,0.9C68.4,10.1,68.8,10.6,69.4,10.6z"/>
<path fill="#2E2E2E" stroke="#2C2E31" stroke-miterlimit="10" d="M52.3,85.9c0.2-9.5,7.1-16.6,14.9-18.1c1.3-0.3,2.7-0.4,4-0.3
	c0.3,0,0.5,0,0.8,0.1c0.1,0.1,0.3,0.3,0.3,0.4c0,0.1-0.1,0.4-0.3,0.4c-0.4,0.1-0.9,0.1-1.3,0.1c-3.2,0.2-6.3,1-9,2.8
	c-5.2,3.5-7.9,8.4-8,14.7c0,0.8,0,1.5,0,2.3c0,0.3-0.1,0.7-0.5,0.7c-0.2,0-0.5-0.4-0.6-0.6C52.4,87.5,52.4,86.7,52.3,85.9z"/>
<path fill="#2E2E2E" stroke="#2C2E31" stroke-miterlimit="10" d="M87.5,88.5c-0.8,1-1.6,0.6-2.4,0.5c-0.3-0.7-0.2-1.4-0.1-2.1
	c0.7-7.3-3.4-13.9-9-16.9c-0.6-0.3-1.1-0.6-1.6-1c-0.1-0.1-0.1-0.4-0.1-0.5c0.1-0.1,0.3-0.3,0.4-0.3c0.5,0.1,1,0.2,1.4,0.5
	c4.7,2.4,7.8,6.1,9.4,11.1c0.6,1.8,0.9,3.6,0.8,5.5c0,0.8,0,1.5,0,2.3C86.7,87.8,87,88.1,87.5,88.5z"/>
<g>
	<path stroke="#000000" stroke-miterlimit="10" d="M48.8,51.2 M47.6,51.3"/>
	<path fill="#FFFFFF" stroke="#000000" stroke-miterlimit="10" d="M47.6,51.3"/>
</g>
<path fill="#2E2E2E" stroke="#2C2E31" stroke-miterlimit="10" d="M110.4,54.6c-0.2,0.1-0.5,0.4-0.8,0.3c-0.5-0.1-1-0.3-1.4-0.5
	c-3-1.6-5.5-3.7-7.6-6.4c-0.3-0.4-0.5-1-1.3-1.2c-0.1,0.4-0.2,0.7-0.2,1.1c-0.2,4.7-0.1,8,0.4,9.5c0.6,0,1.2,0.1,1.8,0.1
	c2,0,4,0,6,0c0.4,0,0.9,0,1.3,0c1.7,0.3,2.8,1.6,2.7,3.4c-0.1,1.6-1.3,2.9-3,2.9c-2.2,0.1-4.5,0-6.7,0c-0.2,0-0.5-0.1-0.7-0.2
	c-0.1,0-0.2-0.2-0.2-0.3c0-0.1,0.1-0.3,0.1-0.3c0.4-0.1,0.7-0.3,1.1-0.3c1.6,0,3.2,0,4.8,0c0.6,0,1.2,0,1.7-0.1c1-0.2,1.6-1,1.7-1.8
	c0-1-0.7-1.8-1.8-1.9c-0.4,0-0.8,0-1.2,0c-5.8,0-11.6,0-17.5,0c-0.4,0-0.9,0-1.3,0.1c-0.9,0.2-1.6,1-1.6,1.9c0,0.8,0.6,1.6,1.4,1.8
	c0.6,0.1,1.1,0.2,1.7,0.2c1.7,0,3.3,0,5,0c0.4,0,0.7,0.2,1.1,0.3c0.1,0,0.1,0.2,0.1,0.3c0,0.1-0.1,0.3-0.2,0.3
	c-0.2,0.1-0.5,0.2-0.7,0.2c-2.2,0-4.4,0.1-6.5,0c-1.8,0-3.1-1.3-3.1-3c-0.1-1.8,1.1-3.2,3-3.3c0.4,0,0.9,0,1.3,0c2,0,4,0,6,0
	c0.6,0,1.1-0.1,1.6-0.1c0.1-0.3,0.3-0.5,0.3-0.6c0-3,0.1-6,0.1-9c0-0.2-0.1-0.5-0.1-0.6c-0.5-0.2-0.7,0.1-0.9,0.3
	c-0.9,1-1.7,2.1-2.6,3c-1.5,1.6-3.3,2.8-5.2,3.9c-0.4,0.2-0.9,0.5-1.4,0.6c-0.3,0.1-0.6,0-0.9-0.2c-0.2-0.1,0-0.7,0.4-0.9
	c1.8-0.9,3.5-1.9,5-3.2c2.4-2,4.3-4.3,5.4-7.3c0.1-0.2,0.1-0.4,0.2-0.5c0.2-0.2,0.4-0.4,0.6-0.4c0.2,0,0.4,0.2,0.6,0.4
	c0.1,0.1,0.1,0.2,0.2,0.3c1.8,4.8,5.4,8,9.8,10.4C109.5,53.7,110.1,53.8,110.4,54.6z"/>
<path fill="#2E2E2E" stroke="#2C2E31" stroke-miterlimit="10" d="M32.7,43.1c-2.1,0-4.2,0-6.3,0c-1,0-1.9,0-2.9,0
	c-0.4,0-0.9,0-1-0.6c-0.1-0.4,0.3-0.6,1-0.6c0.2,0,0.4,0,0.6,0c8.6,0,17.1,0,25.7,0c0.4,0,0.8,0,1.1,0.1c0.2,0.1,0.4,0.4,0.4,0.5
	c0,0.2-0.3,0.5-0.4,0.5c-0.5,0.1-1,0.1-1.5,0.1c-2.4,0-4.9,0-7.3,0c-0.5,0-1,0.1-1.5,0.2c-0.1,0.3-0.2,0.6-0.3,0.8
	c-0.6,3.6-2.4,6.5-4.9,9.1c-0.2,0.2-0.4,0.4-0.6,0.5c-0.1,0.1-0.3,0.2-0.5,0.3c-0.3,0.2-0.6,0.2-0.9-0.1c-0.1-0.2-0.3-0.5-0.2-0.7
	c0.2-1.1,0.6-2.1,0.8-3.1c0.4-2.2,0.8-4.4,0.5-6.9C33.8,43.2,33.2,43.1,32.7,43.1z"/>
<path fill="#2E2E2E" stroke="#2C2E31" stroke-miterlimit="10" d="M36.3,43.5c-0.4,1.1-0.2,2.3-0.3,3.4c-0.2,1.1-0.3,2.3-0.4,3.5
	c1-0.6,1.6-1.6,2.3-3.1c0.8-1.7,0.9-2.4,0.7-3.7C37.8,43.2,37.1,43.2,36.3,43.5z"/>
<path fill="#2E2E2E" stroke="#2C2E31" stroke-miterlimit="10" d="M31.5,54.9c-0.5,0.4-0.9,0.8-1.4,1.2c-4.2,3.8-9,6.6-14.4,8.3
	c-0.6,0.2-1.2,0.3-1.8,0.6c-0.1,0.1-0.2,0.4-0.2,0.6c0,0.1,0.3,0.3,0.4,0.3c0.6-0.1,1.3-0.1,1.9-0.3c5-1.5,9.5-4,13.6-7.3
	c0.8-0.7,1.6-1.5,2.4-2.2C32.2,55.6,32.1,55.5,31.5,54.9z"/>
<path fill="#2E2E2E" stroke="#2C2E31" stroke-miterlimit="10" d="M47.8,56.4c0-1.3-0.8-2.4-2.1-2.6c-0.4-0.1-0.8-0.1-1.1-0.1
	c-2,0-4.1-0.1-6.1-0.1c-0.5,0-1,0-1.5,0.1c-0.1,0-0.3,0.3-0.3,0.4c0,0.1,0.2,0.4,0.3,0.4c0.4,0.1,0.7,0.1,1.1,0.1
	c1.7,0.1,3.3,0.1,5,0.1c0.6,0,1.1,0.1,1.7,0.1c1.6,0.2,2,0.6,1.7,2.3c-0.4,2.2-0.8,4.4-1.3,6.6c-0.1,0.3-0.1,0.6-0.2,0.9
	c-0.1,0.7,0.1,1.1,0.4,1.1c0.5,0,0.6-0.4,0.7-0.8c0.6-2.8,1.1-5.6,1.7-8.4C47.8,56.5,47.8,56.4,47.8,56.4z"/>
<g>
	<path fill="#2C2E31" d="M89.1,71.4c0,0-2.7-2.3-6.7-5.8c-2-1.8-4.2-3.9-6.6-6.2c-1.2-1.2-2.4-2.3-3.7-3.6c-1.2-1.2-2.5-2.5-3.8-3.7
		c-1.2-1.3-2.5-2.5-3.7-3.8c-1.2-1.2-2.4-2.5-3.6-3.7c-2.3-2.4-4.4-4.7-6.2-6.6c-3.6-3.9-5.8-6.7-5.8-6.7s2.7,2.3,6.7,5.8
		c2,1.8,4.2,3.9,6.6,6.2c1.2,1.2,2.4,2.3,3.7,3.6c1.2,1.2,2.5,2.5,3.8,3.7c1.2,1.3,2.5,2.5,3.7,3.8c1.2,1.2,2.4,2.5,3.6,3.7
		c2.3,2.4,4.4,4.7,6.2,6.6C86.8,68.7,89.1,71.4,89.1,71.4z"/>
</g>
<g>
	<path fill="#2C2E31" d="M50.2,71.6c0,0,2.3-2.7,5.8-6.7c1.8-2,3.9-4.2,6.2-6.6c1.2-1.2,2.3-2.4,3.6-3.7c1.2-1.2,2.5-2.5,3.7-3.8
		c1.3-1.2,2.5-2.5,3.8-3.7c1.2-1.2,2.5-2.4,3.7-3.6c2.4-2.3,4.7-4.4,6.6-6.2c3.9-3.6,6.7-5.8,6.7-5.8s-2.3,2.7-5.8,6.7
		c-1.8,2-3.9,4.2-6.2,6.6c-1.2,1.2-2.3,2.4-3.6,3.7c-1.2,1.2-2.5,2.5-3.7,3.8c-1.3,1.2-2.5,2.5-3.8,3.7c-1.2,1.2-2.5,2.4-3.7,3.6
		c-2.4,2.3-4.7,4.4-6.6,6.2C53,69.3,50.2,71.6,50.2,71.6z"/>
</g>
<path fill="#2E2E2E" stroke="#2C2E31" stroke-width="2" stroke-miterlimit="10" d="M100.7,37.5c0,1.3-1.1,2.3-2.4,2.2
	c-1.2-0.1-2.1-1.1-2.1-2.3c0-1.3,1-2.3,2.3-2.3C99.8,35.1,100.8,36.2,100.7,37.5z M98.5,38.4c0.5,0,1-0.4,0.9-1
	c0-0.5-0.4-0.9-0.8-0.9c-0.5-0.1-1,0.3-1,0.9C97.5,37.9,97.9,38.4,98.5,38.4z"/>
<path fill="#2E2E2E" stroke="#2C2E31" stroke-width="2" stroke-miterlimit="10" d="M40.7,37.5c0,1.3-1.1,2.3-2.4,2.2
	c-1.2-0.1-2.1-1.1-2.1-2.3c0-1.3,1-2.3,2.3-2.3C39.8,35.1,40.8,36.2,40.7,37.5z M38.5,38.4c0.5,0,1-0.4,0.9-1c0-0.5-0.4-0.9-0.8-0.9
	c-0.5-0.1-1,0.3-1,0.9C37.5,37.9,37.9,38.4,38.5,38.4z"/>
<path fill="#2E2E2E" stroke="#2C2E31" stroke-width="2" stroke-miterlimit="10" d="M64.7,76.5c0,1.3-1.1,2.3-2.4,2.2
	c-1.2-0.1-2.1-1.1-2.1-2.3c0-1.3,1-2.3,2.3-2.3C63.8,74.1,64.8,75.2,64.7,76.5z M62.5,77.4c0.5,0,1-0.4,0.9-1c0-0.5-0.4-0.9-0.8-0.9
	c-0.5-0.1-1,0.3-1,0.9C61.5,76.9,61.9,77.4,62.5,77.4z"/>
</svg>
