<?xml version="1.0" encoding="utf-8"?>
<!-- Generator: Adobe Illustrator 18.0.0, SVG Export Plug-In . SVG Version: 6.00 Build 0)  -->
<!DOCTYPE svg PUBLIC "-//W3C//DTD SVG 1.1//EN" "http://www.w3.org/Graphics/SVG/1.1/DTD/svg11.dtd">
<svg version="1.1" id="_x31_0" xmlns="http://www.w3.org/2000/svg" xmlns:xlink="http://www.w3.org/1999/xlink" x="0px" y="0px"
	 viewBox="0 0 48 48" enable-background="new 0 0 48 48" xml:space="preserve">
<g>
	<path fill="#FFFFFF" stroke="#2E2E2E" stroke-width="2" stroke-miterlimit="10" d="M26,46.2c-0.1-0.7-0.1-1.3-0.2-2
		c-0.5-2.5-0.4-5-0.2-7.4c0.1-0.9,0.1-1.9,0.1-2.8c-0.1-1.1-0.3-2.2-0.4-3.3c-0.2-1.7-0.4-3.3-0.6-5c-0.2-1.9-0.6-3.8-0.3-5.8
		c0-0.1-0.1-0.3-0.2-0.5c0,0.2-0.1,0.2-0.1,0.3c-0.6,2.1-1.1,4.3-1.8,6.4c-0.3,1.1-0.7,2.2-1.2,3.3c-0.4,0.9-1,1.8-1.4,2.7
		c-1,2.5-1.9,5-2.3,7.7c-0.2,1.2-0.4,2.4-0.7,3.6c-0.1,0.6-2.8,1.6-4.1,1.4c0-0.6-0.1-1.1-0.1-1.7c-0.1-0.9-0.4-1.9-0.4-2.8
		c-0.2-2.5,0.2-4.9,1.2-7.3c0.5-1.2,0.7-2.5,0.9-3.8c0.2-0.9,0.1-1.9,0.1-2.9c0.1-2.8,0.2-5.6,0.3-8.4c0-0.5,0-1,0-1.5
		c-0.2-1.3-0.6-2.7-0.4-4.1C14.8,10,16,8.1,18,6.8c0.7-0.4,1.4-0.7,2.1-1c1.1-0.4,1.7-1.4,1.5-2.6c-0.1-0.5,1.8-1.4,2.8-1.2
		c2.7,0.3,5.3,0.6,8,0.9c0.6,0.1,1.3,0.8,1.3,1.3C33.8,5,33.9,5.8,34,6.6c0.1,0.8,0.3,1.6,0.5,2.4c0.2,0.9,0.5,1.8,0.6,2.7
		c0.1,1,0.1,2,0.2,3c0.1,2.1,0.1,4.2-0.1,6.3c-0.3,2.6-1,5.1-1.8,7.6c-0.4,1.3-1,2.5-1.4,3.8c-0.4,1.2-0.6,2.5-0.5,3.8
		c0.3,2.6,0.2,5.2-0.3,7.8C31,45,27.6,46.4,26,46.2z"/>
</g>
</svg>
