<?xml version="1.0" encoding="utf-8"?>
<!-- Generator: Adobe Illustrator 18.0.0, SVG Export Plug-In . SVG Version: 6.00 Build 0)  -->
<!DOCTYPE svg PUBLIC "-//W3C//DTD SVG 1.1//EN" "http://www.w3.org/Graphics/SVG/1.1/DTD/svg11.dtd">
<svg version="1.1" id="Layer_1" xmlns="http://www.w3.org/2000/svg" xmlns:xlink="http://www.w3.org/1999/xlink" x="0px" y="0px"
	 viewBox="0 0 140 100" enable-background="new 0 0 140 100" xml:space="preserve">
<g>
	<path display="none" fill="#FFFFFF" d="M21.3,2.9c33.3,0,66.7,0,100,0c0,33.3,0,66.7,0,100c-33.3,0-66.7,0-100,0
		C21.3,69.6,21.3,36.2,21.3,2.9z M118.1,54c0.2-14-4.8-25.8-14.8-35.4c-0.6-0.6-1.5-1.5-1.7-2.3c-1.9-6-6.5-8.1-12.1-5.2
		c-1.3,0.6-2.3,1.2-3.5,1.5c-18.5,3.1-36,9-51.9,19.8c-2.1,1.5-4.4,2.5-6.7,3.3c-5.4,2.1-7.3,6.7-4.6,11.9c0.4,0.8,0.6,2.1,0.6,3.1
		c0,14.6,5,27.1,15.4,37.3c0.6,0.6,1.3,1.5,1.5,2.3c1.9,6,6.5,8.1,12.1,5.2c1.3-0.6,2.3-1.3,3.5-1.5c18.5-3.1,36-9,51.9-19.8
		c2.1-1.5,4.4-2.3,6.7-3.3c4.8-1.9,7.1-6.3,5.2-10.4C119.2,58.1,118.8,56,118.1,54z"/>
	<path fill="#2E2E2E" d="M118.1,54c0.6,2.1,1,4,1.9,6c1.9,4.4-0.4,8.8-5.2,10.4c-2.3,0.8-4.6,1.9-6.7,3.3
		C92.5,84.4,74.8,90.4,56.2,93.5c-1.3,0.2-2.5,0.8-3.5,1.5c-5.6,2.9-10.4,1-12.1-5.2c-0.2-0.8-0.8-1.7-1.5-2.3
		C28.8,77.3,23.8,64.8,23.8,50.2c0-1-0.2-2.1-0.6-3.1c-2.9-4.8-1-9.6,4.4-11.7c2.3-0.8,4.6-1.9,6.7-3.3C49.8,21.5,67.5,15.4,86,12.3
		c1.3-0.2,2.5-0.8,3.5-1.5c5.6-2.9,10.4-1,12.1,5.2c0.2,0.8,1,1.7,1.7,2.3C113.3,28.3,118.3,40,118.1,54z M113.8,54.6
		c-0.2-13.5-5.2-24.8-15.2-34c-0.8-0.6-1.5-1.5-1.5-2.3c-0.4-3.5-2.1-4.4-5.4-2.7c-1.7,0.8-3.5,1.7-5.2,1.9
		c-19,3.1-36.7,9.6-52.3,20.8c-1,0.6-2.3,1.3-3.3,1.5c-1.7,0.4-4,0.8-3.8,2.9c0.2,1.3,2.1,2.5,3.1,3.7c0.4,0.4,0.8,0.4,1.5,0.4
		c1.7,0.2,2.3,1.3,2.3,2.9c0.4,12.1,5,22.3,12.9,31.3c0.8,1,2.5,2.1,2.5,3.1c0,1-1.9,1.9-2.5,3.1c-0.4,0.8-0.8,2.1-0.4,2.9
		c0.4,0.6,1.7,1,2.7,1c0.6,0,1.5-0.6,2.1-0.8c1.7-0.6,3.3-1.5,5-1.9c16.5-2.7,32.1-7.9,46.5-16.9c3.8-2.3,6.9-5.4,11.5-6.3
		c1.7-0.2,2.9-2.1,1.7-3.5C113.1,59.6,113.8,57.1,113.8,54.6z M32.5,60.6c-1,0.2-1.9,0.4-2.9,0.6c1,2.9,1.9,5.6,2.7,8.5
		c1.3-0.6,2.1-1,2.9-1.5C34.4,65.6,33.3,63.3,32.5,60.6z M31.9,58.1c-0.2-2.5-0.6-4.6-0.6-6.9c0-1.7-0.6-2.5-2.7-2.3
		c0.2,3.1,0.2,6.5,0.4,9.8C30.2,58.3,31,58.3,31.9,58.1z M33.3,72.1c1.7,2.5,2.9,4.6,4.4,6.9c0.8-0.8,1.7-1.5,2.3-1.9
		c-1.3-2.1-2.5-4.2-3.8-6.3C35.4,71,34.6,71.5,33.3,72.1z M44.4,85.8c0.6-0.8,1.3-1.5,1.5-1.9c-1.7-1.9-2.9-3.3-4.6-5.2
		c-0.8,0.6-1.3,1.3-2.1,1.9C41,82.5,42.5,84.2,44.4,85.8z"/>
	<path display="none" fill="#FFFFFF" d="M113.8,54.6c0,2.5-0.6,5,1.7,7.3c1.5,1.5,0.2,3.3-1.7,3.5c-4.6,0.8-7.9,4-11.5,6.3
		c-14.2,9-29.8,14-46.5,16.9c-1.7,0.2-3.3,1.2-5,1.9c-0.6,0.2-1.5,0.8-2.1,0.8c-1,0-2.3-0.4-2.7-1c-0.4-0.6,0-2.1,0.4-2.9
		c0.6-1,2.5-2.1,2.5-3.1c0-1-1.7-2.1-2.5-3.1c-7.7-9-12.5-19.2-12.9-31.2c0-1.7-0.6-2.7-2.3-2.9c-0.4,0-1-0.2-1.5-0.4
		c-1.2-1.3-2.9-2.3-3.1-3.7c-0.2-2.1,2.1-2.3,3.7-2.9c1.3-0.4,2.3-0.8,3.3-1.5C49.6,27.1,67.1,20.6,86,17.5c1.9-0.2,3.5-1,5.2-1.9
		c3.5-1.9,5.2-1,5.8,2.7c0.2,0.8,0.8,1.9,1.5,2.3C108.5,29.8,113.5,41,113.8,54.6z"/>
	<path display="none" fill="#FFFFFF" d="M32.5,60.6c1,2.7,1.9,5.2,2.7,7.7c-0.8,0.4-1.7,0.8-2.9,1.5c-1-2.9-1.9-5.6-2.7-8.5
		C30.6,61,31.5,60.8,32.5,60.6z"/>
	<path display="none" fill="#FFFFFF" d="M31.9,58.1c-0.8,0.2-1.7,0.2-2.9,0.4c-0.2-3.3-0.2-6.5-0.4-9.8c1.9,0,2.7,0.6,2.7,2.3
		C31.3,53.5,31.7,55.6,31.9,58.1z"/>
	<path display="none" fill="#FFFFFF" d="M33.3,72.1c1.3-0.6,2.1-0.8,2.9-1.3c1.3,2.1,2.5,4.2,3.8,6.3c-0.6,0.6-1.3,1.3-2.3,1.9
		C36.3,76.5,35,74.4,33.3,72.1z"/>
	<path display="none" fill="#FFFFFF" d="M44.4,85.8c-1.7-1.9-3.3-3.3-5-5c0.8-0.6,1.5-1.3,2.1-1.9c1.5,1.7,2.9,3.3,4.6,5.2
		C45.4,84.6,45,85,44.4,85.8z"/>
</g>
</svg>
