<!--?xml version="1.0" encoding="utf-8"?-->
<!-- Generator: Adobe Illustrator 19.1.1, SVG Export Plug-In . SVG Version: 6.00 Build 0)  -->
<svg version="1.1" id="_x31_0" xmlns="http://www.w3.org/2000/svg" xmlns:xlink="http://www.w3.org/1999/xlink" x="0px" y="0px" viewBox="0 0 512 512" style="width: 256px; height: 256px; opacity: 1;" xml:space="preserve">
<style type="text/css">
	.st0{fill:#374149;}
</style>
<g>
	<path class="st0" d="M484.996,299.085c-1.333-1.329-2.727-2.619-4.149-3.831c-54.977-49.201-99.951-91.482-141.485-133.02
		c-42.11-42.107-81.777-84.547-121.277-129.746l-0.864-0.988l-0.922-0.926c-4.893-4.894-10.15-9.058-15.589-12.804
		c-0.237-0.163-0.469-0.337-0.706-0.5c-2.526-1.708-5.098-3.281-7.725-4.738c-0.465-0.26-0.938-0.512-1.406-0.763
		c-2.646-1.418-5.318-2.739-8.054-3.906c-0.151-0.062-0.302-0.112-0.454-0.178c-11.974-5.025-24.755-7.594-38.008-7.663
		c-0.163,0-0.326-0.023-0.488-0.023c-0.124,0-0.252,0.015-0.372,0.015c-5.71,0.02-11.475,0.334-17.321,1.302
		C98.109,5.958,70.328,21.362,45.833,45.861C22.12,69.574,6.929,99.346,3.071,129.696c-4.246,33.347,5.706,64.859,27.305,86.457
		l0.79,0.794l0.945,0.852c45.795,40.976,91.342,84.078,135.375,128.115c44.036,44.033,87.143,89.584,128.126,135.386l0.709,0.79
		l0.748,0.755c7.07,7.07,14.934,12.696,23.275,17.19c0.33,0.178,0.655,0.364,0.988,0.538c2.542,1.333,5.13,2.538,7.763,3.638
		c0.469,0.194,0.938,0.384,1.41,0.574c2.681,1.069,5.393,2.03,8.155,2.859c0.314,0.097,0.631,0.178,0.949,0.267
		c17.375,5.036,36.145,5.4,54.973,1.197c0.279-0.062,0.558-0.135,0.837-0.198c3.816-0.879,7.624-1.945,11.425-3.196
		c0.62-0.202,1.236-0.41,1.856-0.624c3.564-1.232,7.105-2.626,10.638-4.184c0.589-0.263,1.182-0.507,1.77-0.778
		c3.809-1.739,7.578-3.669,11.316-5.788c0.167-0.097,0.342-0.182,0.508-0.278c12.091-6.912,23.779-15.69,34.595-26.506
		c22.737-22.733,37.416-52.823,41.34-84.726C513.036,348.948,504.335,318.424,484.996,299.085z M389.4,469.14
		c-23.67,6.431-46.895,2.158-63.639-14.59c-0.042-0.038-0.078-0.078-0.12-0.116c-41.67-46.574-85.055-92.408-129.661-137.014
		s-90.432-87.984-137.002-129.653c-0.034-0.035-0.074-0.07-0.108-0.109c-26.371-26.37-20.986-76.865,15.458-113.308
		c36.431-36.432,81.618-47.147,113.262-15.504c0.054,0.054,0.105,0.104,0.155,0.154c0.194,0.225,0.383,0.43,0.577,0.651
		c15.597,21.486,10.231,58.463-12.451,81.15c-21.818,21.819-52.284,28.218-66.525,13.978c-8.624-8.62-2.941-22.155,5.989-31.086
		c13.99-13.989,25.007-14.865,33.941-13.881c6.636,0.737,12.61-4.048,13.342-10.684c0.736-6.637-4.049-12.622-10.685-13.342
		c-20.203-2.235-37.265,4.378-53.698,20.811c-17.146,17.15-21.726,38.973-12.962,55.725c1.119,2.193,2.402,4.323,3.974,6.326
		l-0.116,0.112l201.172,201.172L389.4,469.14z M140.298,185.606c18.065-2.654,37.024-12.067,52.664-27.707
		c16.933-16.933,26.452-39.469,28.09-61.508c30.272,33.39,59.998,64.522,89.816,94.337c46.741,46.745,93.733,90.378,143.538,134.938
		c0.725,0.604,1.422,1.239,2.096,1.914c20.924,20.928,17.89,76.129-17.464,111.484c-8.07,8.066-16.721,14.647-25.588,19.827
		L242.282,287.718L140.298,185.606z" style="fill: rgb(75, 75, 75);"></path>
</g>
</svg>
